<svg xmlns="http://www.w3.org/2000/svg" version="1.1" xmlns:xlink="http://www.w3.org/1999/xlink" width="237" height="146"><svg width="237" height="146" viewBox="0 0 237 146" fill="none" xmlns="http://www.w3.org/2000/svg">
<path d="M227.785 122.383H216.112L195.912 28.2046C194.356 20.9557 190.728 14.5234 185.421 9.60073C180.504 5.04608 174.378 1.97802 167.699 0.732968C161.02 -0.512085 154.198 0.134882 147.97 2.61061C141.245 5.28474 135.541 9.97454 131.476 16.1768L67.5205 113.737L67.6873 113.846L85.8346 145.28L85.9438 145.217V145.383H115.652V131.006C115.652 126.242 111.791 122.38 107.027 122.38H102.496L99.563 117.302L155.523 31.9398C157.754 28.5353 161.095 28.7452 162.426 28.9954C163.757 29.2455 166.951 30.2519 167.802 34.2315L191.642 145.383H191.654H236.41V131.006C236.41 126.242 232.549 122.38 227.785 122.38V122.383Z" fill="url(#paint0_linear_536_927)"></path>
<path d="M160.825 122.383H149.152L128.952 28.2046C127.396 20.9557 123.768 14.5234 118.461 9.60073C113.544 5.04608 107.418 1.97802 100.739 0.732968C94.0601 -0.512085 87.2376 0.134882 81.0103 2.61061C74.2855 5.28474 68.5814 9.97454 64.5161 16.1768L0.560547 113.739L0.7273 113.849L18.8746 145.283L18.9839 145.219V145.386H48.8614V131.009C48.8614 126.245 45.0002 122.383 40.2363 122.383H35.5356L32.603 117.305L88.5602 31.9456C90.7912 28.5411 94.132 28.751 95.4632 29.0011C96.7943 29.2513 99.9885 30.2577 100.84 34.2373L124.679 145.389H124.691H169.447V131.012C169.447 126.248 165.586 122.386 160.822 122.386L160.825 122.383Z" fill="url(#paint1_linear_536_927)"></path>
<defs>
<linearGradient id="SvgjsLinearGradient1006" x1="202.717" y1="56.539" x2="66.3736" y2="114.517" gradientUnits="userSpaceOnUse">
<stop stop-color="#FF7852"></stop>
<stop offset="0.95035" stop-color="#1B409C"></stop>
</linearGradient>
<linearGradient id="SvgjsLinearGradient1005" x1="136.899" y1="62.8082" x2="16.2281" y2="106.683" gradientUnits="userSpaceOnUse">
<stop stop-color="#FF7852"></stop>
<stop offset="0.95035" stop-color="#1B409C"></stop>
</linearGradient>
</defs>
</svg><style>@media (prefers-color-scheme: light) { :root { filter: none; } }
@media (prefers-color-scheme: dark) { :root { filter: none; } }
</style></svg>