<svg width="24" height="24" viewBox="0 0 24 24" fill="none" xmlns="http://www.w3.org/2000/svg">
<path d="M10.7959 5.48548C10.5033 5.77804 10.1064 5.94238 9.69261 5.94238H3.6709C3.58835 5.94263 3.52166 6.00922 3.52148 6.0918V20.1289C3.52148 20.2116 3.58823 20.279 3.6709 20.2793H17.709C17.7916 20.279 17.8594 20.2116 17.8594 20.1289V15.2771C17.8594 14.8633 18.0237 14.4665 18.3163 14.1739V14.1739C19.2991 13.1911 20.9795 13.8872 20.9795 15.2771V20.1289C20.9795 21.9353 19.5154 23.4001 17.709 23.4004H3.6709C1.86453 23.4001 0.400391 21.9353 0.400391 20.1289V6.0918C0.400569 4.28552 1.86464 2.82154 3.6709 2.82129H9.69261C11.083 2.82129 11.7792 4.50246 10.7959 5.48548V5.48548Z" fill="url(#paint0_linear_206_605)"/>
<path d="M23.774 3.84263C23.774 4.70266 23.4325 5.52776 22.8247 6.13589L12.7638 16.2003C12.6364 16.3277 12.477 16.4181 12.3023 16.4619L8.06572 17.5215C7.72678 17.6061 7.36831 17.5071 7.12124 17.26C6.8741 17.0127 6.77509 16.6533 6.85986 16.3141L7.91802 12.0766C7.96176 11.9015 8.05286 11.7414 8.18038 11.6138L18.2402 1.54938C18.8481 0.941229 19.6728 0.59962 20.5324 0.599609C21.3921 0.599609 22.2168 0.94122 22.8247 1.54938C23.4325 2.15754 23.774 2.98258 23.774 3.84263Z" fill="url(#paint1_linear_206_605)"/>
<defs>
<linearGradient id="paint0_linear_206_605" x1="15.3034" y1="26.2748" x2="21.4658" y2="5.56259" gradientUnits="userSpaceOnUse">
<stop stop-color="#1B409C"/>
<stop offset="0.738848" stop-color="#FF7852"/>
</linearGradient>
<linearGradient id="paint1_linear_206_605" x1="19.1007" y1="19.9191" x2="24.1788" y2="2.85898" gradientUnits="userSpaceOnUse">
<stop stop-color="#1B409C"/>
<stop offset="0.738848" stop-color="#FF7852"/>
</linearGradient>
</defs>
</svg>
