<svg width="20" height="24" viewBox="0 0 20 24" fill="none" xmlns="http://www.w3.org/2000/svg">
<path d="M10.083 0.5C12.6247 0.5 15.0631 1.51781 16.8604 3.3291C18.6574 5.14033 19.6669 7.59686 19.667 10.1582C19.667 15.7615 14.3347 20.7678 11.625 22.9502C10.7153 23.6827 9.45171 23.6827 8.54199 22.9502C5.83232 20.7678 0.5 15.7615 0.5 10.1582C0.500044 7.59683 1.5096 5.14033 3.30664 3.3291C5.10378 1.51791 7.54148 0.500114 10.083 0.5ZM10.083 5.67285C7.55403 5.67286 5.50398 7.72302 5.50391 10.252C5.50391 12.7809 7.55398 14.831 10.083 14.8311C12.612 14.8311 14.6621 12.781 14.6621 10.252C14.662 7.72302 12.612 5.67285 10.083 5.67285Z" fill="#727C94"/>
</svg>
