<svg width="20" height="20" viewBox="0 0 20 20" fill="none" xmlns="http://www.w3.org/2000/svg">
<path d="M8.98926 -0.000976562C13.9536 -0.000729132 17.9775 4.02382 17.9775 8.98828C17.9774 11.0653 17.271 12.976 16.0879 14.498L19.6709 18.082C20.1096 18.5209 20.1096 19.2321 19.6709 19.6709C19.2321 20.1094 18.5207 20.1095 18.082 19.6709L14.499 16.0869C12.977 17.27 11.0663 17.9765 8.98926 17.9766C4.02482 17.9766 0.000258222 13.9527 0 8.98828C0 4.02367 4.02466 -0.000976562 8.98926 -0.000976562ZM8.98926 2.24609C5.26581 2.24609 2.24707 5.26482 2.24707 8.98828C2.24733 12.7115 5.26597 15.7295 8.98926 15.7295C12.7123 15.7292 15.7302 12.7114 15.7305 8.98828C15.7305 5.26498 12.7125 2.24634 8.98926 2.24609Z" fill="#060D1D"/>
</svg>
