<svg width="24" height="24" viewBox="0 0 24 24" fill="none" xmlns="http://www.w3.org/2000/svg">
<path d="M16.959 12.6768C17.2812 12.6889 17.7253 12.8166 18.2002 13.6895L18.7441 14.8447C19.3557 16.1419 19.5464 17.6264 19.3213 18.9033C19.0957 20.1832 18.4849 21.1279 17.6201 21.5928C15.9433 22.4941 14.6127 22.8125 11.7998 22.8125C8.98713 22.8125 7.65749 22.4941 5.98047 21.5928C5.11568 21.128 4.50513 20.1832 4.2793 18.9033C4.05404 17.6261 4.24386 16.141 4.85547 14.8438L5.39941 13.6885C5.89431 12.8143 6.34244 12.6887 6.65723 12.6768C7.11784 12.6594 7.71396 12.8806 8.45605 13.3105C9.46156 13.8931 10.5961 14.2266 11.8008 14.2266C13.0051 14.2265 14.1395 13.8929 15.1445 13.3105C15.8819 12.8833 16.4904 12.6591 16.959 12.6768ZM11.8008 2.08789C13.8625 2.08812 15.502 3.72856 15.502 5.71289C15.502 7.69722 13.8625 9.33766 11.8008 9.33789C9.73886 9.33789 8.09863 7.69736 8.09863 5.71289C8.09863 3.72842 9.73886 2.08789 11.8008 2.08789Z" stroke="#FBFCFF" stroke-width="2.375" stroke-linejoin="round"/>
</svg>
