<svg width="17" height="17" viewBox="0 0 17 17" fill="none" xmlns="http://www.w3.org/2000/svg">
<path d="M8.55859 0.353516C10.359 0.353516 12.0863 1.07442 13.3594 2.35742C14.6323 3.64041 15.3477 5.38093 15.3477 7.19531C15.3476 11.164 11.5708 14.7099 9.65137 16.2559C9.00693 16.7749 8.11124 16.7749 7.4668 16.2559C5.54745 14.71 1.7706 11.1642 1.77051 7.19531C1.77051 5.38087 2.48574 3.64042 3.75879 2.35742C5.03175 1.07452 6.75837 0.353604 8.55859 0.353516ZM8.55859 3.89941C6.76736 3.89948 5.31561 5.35137 5.31543 7.14258C5.31543 8.93394 6.76725 10.3867 8.55859 10.3867C10.35 10.3867 11.8027 8.93398 11.8027 7.14258C11.8026 5.35133 10.3499 3.89941 8.55859 3.89941Z" fill="#636B81"/>
</svg>
