<svg width="24" height="24" viewBox="0 0 24 24" fill="none" xmlns="http://www.w3.org/2000/svg">
<g clip-path="url(#clip0_865_10969)">
<path d="M3.73975 4.02832H10.3638C10.3838 4.02836 10.3943 4.0311 10.3979 4.03223C10.4016 4.03337 10.4036 4.03434 10.4048 4.03516C10.4081 4.03743 10.4156 4.04421 10.4204 4.05566C10.4211 4.0574 10.421 4.05919 10.4214 4.06055C10.4193 4.06303 10.4176 4.06736 10.4136 4.07129C10.4047 4.07992 10.3871 4.08875 10.3638 4.08887H3.73975C2.63957 4.08928 1.70321 4.96845 1.70264 6.10742V20.1318C1.70264 21.2007 2.52627 22.0397 3.53564 22.1406L3.73975 22.1514H18.0747C19.1755 22.1513 20.1118 21.2715 20.1118 20.1318V13.7773C20.1119 13.7768 20.1122 13.7758 20.1128 13.7744C20.1136 13.7725 20.1157 13.7695 20.1196 13.7656C20.1309 13.7546 20.1384 13.7504 20.1411 13.749C20.1439 13.7476 20.1471 13.7458 20.1509 13.7451C20.1601 13.7436 20.1783 13.7443 20.1997 13.7529C20.2141 13.7588 20.2222 13.766 20.2261 13.7695C20.2262 13.7715 20.227 13.774 20.2271 13.7773V20.1318C20.2271 21.2564 19.2883 22.2118 18.0747 22.2119H3.73975C2.52618 22.2116 1.5874 21.2561 1.5874 20.1318V6.1084L1.59814 5.89941C1.70591 4.86806 2.60231 4.02857 3.73975 4.02832ZM20.5249 1.78711C21.0787 1.78711 21.605 2.00264 21.9888 2.37793C22.3237 2.70562 22.5272 3.13151 22.5728 3.58008L22.5825 3.77441C22.5824 4.2928 22.3715 4.79549 21.9888 5.16992L11.9556 14.9844L8.07666 15.9326L9.03271 12.1885L19.061 2.37793C19.4447 2.00254 19.971 1.7872 20.5249 1.78711Z" stroke="#FBFCFF" stroke-width="2.375" stroke-linecap="round" stroke-linejoin="round"/>
</g>
<defs>
<clipPath id="clip0_865_10969">
<rect width="24" height="24" fill="white"/>
</clipPath>
</defs>
</svg>
