<svg width="24" height="24" viewBox="0 0 24 24" fill="none" xmlns="http://www.w3.org/2000/svg">
<g clip-path="url(#clip0_865_10953)">
<mask id="path-1-inside-1_865_10953" fill="white">
<path d="M15.6154 5.4164C13.3377 5.20007 11.0672 5.89715 9.30306 7.35405C8.43076 8.07527 7.70918 8.96135 7.17954 9.96165C6.6499 10.962 6.3222 12.0569 6.21597 13.1837C6.10739 14.3106 6.22235 15.4482 6.55406 16.5306C6.88576 17.6129 7.42784 18.6192 8.14913 19.4917C8.87068 20.3651 9.75743 21.0877 10.7584 21.6183C11.7594 22.1489 12.8554 22.4773 13.9832 22.5841C15.1968 22.7022 16.4217 22.5592 17.576 22.1664L21.1138 23.0384C21.2891 23.0844 21.4732 23.0873 21.6497 23.0461C21.8262 23.0049 21.9902 22.921 22.1271 22.8021C22.264 22.6832 22.3701 22.5327 22.4356 22.3635C22.5011 22.1945 22.5239 22.0115 22.5029 21.8314L22.3511 18.1442C22.9268 17.1204 23.2782 15.9857 23.3827 14.8158C23.4912 13.6891 23.3762 12.5522 23.0445 11.4699C22.7128 10.3876 22.1708 9.38128 21.4495 8.50881C20.7279 7.63534 19.8412 6.91277 18.8402 6.38219C17.8391 5.85162 16.7433 5.5232 15.6154 5.4164Z"/>
</mask>
<path d="M15.6154 5.4164L15.391 7.7858L15.3903 7.78574L15.6154 5.4164ZM9.30306 7.35405L7.78648 5.51981L7.78754 5.51894L9.30306 7.35405ZM7.17954 9.96165L5.07619 8.84797L5.07619 8.84796L7.17954 9.96165ZM6.21597 13.1837L8.58547 13.4071L8.585 13.412L6.21597 13.1837ZM6.55406 16.5306L4.27852 17.228L4.27852 17.2279L6.55406 16.5306ZM8.14913 19.4917L9.98344 17.9752L9.98398 17.9759L8.14913 19.4917ZM10.7584 21.6183L9.64384 23.7212L9.64378 23.7212L10.7584 21.6183ZM13.9832 22.5841L14.2076 20.2147L14.2137 20.2153L13.9832 22.5841ZM17.576 22.1664L16.8093 19.9133L17.469 19.6888L18.1455 19.8556L17.576 22.1664ZM21.1138 23.0384L21.6834 20.7275L21.7007 20.7318L21.718 20.7363L21.1138 23.0384ZM21.6497 23.0461L22.1908 25.3638L22.1899 25.364L21.6497 23.0461ZM22.1271 22.8021L23.6881 24.5987L23.6878 24.599L22.1271 22.8021ZM22.4356 22.3635L24.6551 23.2228L24.655 23.223L22.4356 22.3635ZM22.5029 21.8314L20.139 22.108L20.1286 22.0189L20.1249 21.9292L22.5029 21.8314ZM22.3511 18.1442L19.9732 18.2421L19.9454 17.5669L20.2766 16.9778L22.3511 18.1442ZM23.3827 14.8158L21.0121 14.6041L21.0129 14.5958L21.0137 14.5876L23.3827 14.8158ZM23.0445 11.4699L25.3201 10.7726L25.3201 10.7726L23.0445 11.4699ZM21.4495 8.50881L19.6152 10.0253L19.6146 10.0246L21.4495 8.50881ZM18.8402 6.38219L19.9548 4.2793L19.9548 4.2793L18.8402 6.38219ZM15.6154 5.4164L15.3903 7.78574C13.7409 7.62907 12.0964 8.1339 10.8186 9.18915L9.30306 7.35405L7.78754 5.51894C10.038 3.6604 12.9346 2.77107 15.8404 3.04706L15.6154 5.4164ZM9.30306 7.35405L10.8196 9.18828C10.1884 9.7102 9.66619 10.3514 9.2829 11.0753L7.17954 9.96165L5.07619 8.84796C5.75217 7.57127 6.67314 6.44034 7.78648 5.51981L9.30306 7.35405ZM7.17954 9.96165L9.2829 11.0753C8.89934 11.7997 8.66229 12.5922 8.58547 13.4071L6.21597 13.1837L3.84648 12.9604C3.98211 11.5215 4.40046 10.1242 5.07619 8.84797L7.17954 9.96165ZM6.21597 13.1837L8.585 13.412C8.50646 14.2271 8.58961 15.0501 8.82959 15.8332L6.55406 16.5306L4.27852 17.2279C3.85508 15.8463 3.70832 14.3941 3.84695 12.9555L6.21597 13.1837ZM6.55406 16.5306L8.82959 15.8332C9.06954 16.6161 9.46168 17.3441 9.98344 17.9752L8.14913 19.4917L6.31482 21.0082C5.39399 19.8944 4.70198 18.6097 4.27852 17.228L6.55406 16.5306ZM8.14913 19.4917L9.98398 17.9759C10.5063 18.6081 11.1482 19.1313 11.873 19.5155L10.7584 21.6183L9.64378 23.7212C8.36661 23.0442 7.23509 22.1221 6.31428 21.0075L8.14913 19.4917ZM10.7584 21.6183L11.873 19.5154C12.598 19.8997 13.3915 20.1374 14.2076 20.2147L13.9832 22.5841L13.7588 24.9535C12.3192 24.8172 10.9208 24.398 9.64384 23.7212L10.7584 21.6183ZM13.9832 22.5841L14.2137 20.2153C15.0893 20.3005 15.9742 20.1974 16.8093 19.9133L17.576 22.1664L18.3427 24.4195C16.8691 24.921 15.3043 25.1039 13.7527 24.9529L13.9832 22.5841ZM17.576 22.1664L18.1455 19.8556L21.6834 20.7275L21.1138 23.0384L20.5443 25.3492L17.0065 24.4773L17.576 22.1664ZM21.1138 23.0384L21.718 20.7363C21.522 20.6849 21.3133 20.6807 21.1094 20.7283L21.6497 23.0461L22.1899 25.364C21.6331 25.4938 21.0562 25.4838 20.5097 25.3404L21.1138 23.0384ZM21.6497 23.0461L21.1086 20.7285C20.9068 20.7756 20.7211 20.8709 20.5664 21.0053L22.1271 22.8021L23.6878 24.599C23.2594 24.9711 22.7456 25.2343 22.1908 25.3638L21.6497 23.0461ZM22.1271 22.8021L20.5661 21.0056C20.4126 21.1389 20.2916 21.3093 20.2162 21.5041L22.4356 22.3635L24.655 23.223C24.4486 23.756 24.1153 24.2275 23.6881 24.5987L22.1271 22.8021ZM22.4356 22.3635L20.2161 21.5043C20.1405 21.6996 20.1154 21.9068 20.139 22.108L22.5029 21.8314L24.8667 21.5548C24.9324 22.1162 24.8616 22.6893 24.6551 23.2228L22.4356 22.3635ZM22.5029 21.8314L20.1249 21.9292L19.9732 18.2421L22.3511 18.1442L24.7291 18.0464L24.8809 21.7335L22.5029 21.8314ZM22.3511 18.1442L20.2766 16.9778C20.6868 16.2481 20.9376 15.4388 21.0121 14.6041L23.3827 14.8158L25.7533 15.0275C25.6189 16.5325 25.1667 17.9928 24.4257 19.3106L22.3511 18.1442ZM23.3827 14.8158L21.0137 14.5876C21.0922 13.7729 21.009 12.9504 20.769 12.1673L23.0445 11.4699L25.3201 10.7726C25.7434 12.1539 25.8903 13.6053 25.7517 15.044L23.3827 14.8158ZM23.0445 11.4699L20.769 12.1673C20.529 11.3844 20.1369 10.6564 19.6152 10.0253L21.4495 8.50881L23.2838 6.99233C24.2046 8.10615 24.8966 9.3908 25.3201 10.7726L23.0445 11.4699ZM21.4495 8.50881L19.6146 10.0246C19.0922 9.39233 18.4504 8.86923 17.7256 8.48508L18.8402 6.38219L19.9548 4.2793C21.2321 4.95631 22.3635 5.87835 23.2843 6.99298L21.4495 8.50881ZM18.8402 6.38219L17.7256 8.48509C17.0005 8.10075 16.2071 7.86307 15.391 7.7858L15.6154 5.4164L15.8397 3.047C17.2795 3.18332 18.6778 3.60249 19.9548 4.2793L18.8402 6.38219Z" fill="#FBFCFF" mask="url(#path-1-inside-1_865_10953)"/>
<path d="M16.2185 6.26313C15.9683 5.73834 15.6582 5.2425 15.2916 4.78785C14.0436 3.24184 12.2326 2.25457 10.257 2.04294C9.27876 1.93789 8.28878 2.02593 7.34484 2.30344C6.40098 2.58097 5.52102 3.04215 4.75532 3.6599C3.99018 4.27679 3.35452 5.03904 2.88425 5.90208C2.41401 6.76529 2.11749 7.71334 2.01407 8.69086C1.89971 9.70444 2.00287 10.7315 2.3148 11.7027L1.55247 14.7739C1.55055 14.7807 1.54877 14.788 1.54699 14.7949L1.48575 15.0317C1.34522 15.5752 1.76652 16.1025 2.32759 16.0856L2.45099 16.081C2.47275 16.0813 2.495 16.0831 2.5168 16.0819L5.67852 15.9549C6.1867 16.2522 6.72757 16.485 7.28817 16.6541" stroke="#FBFCFF" stroke-width="2.38"/>
</g>
<defs>
<clipPath id="clip0_865_10953">
<rect width="24" height="24" fill="white"/>
</clipPath>
</defs>
</svg>
