<svg width="28" height="25" viewBox="0 0 28 25" fill="none" xmlns="http://www.w3.org/2000/svg">
<path d="M8.96909 7.18214C12.2295 5.10516 16.5568 6.06413 18.634 9.32448L20.4464 12.1692L24.5027 9.58491C25.2273 9.12345 26.1888 9.33662 26.6506 10.061C27.1123 10.7857 26.8995 11.7479 26.175 12.2097L7.24604 24.2697L3.76129 18.8001C1.68399 15.5396 2.64314 11.2125 5.90362 9.1352L8.96909 7.18214Z" fill="#FBFCFF"/>
<path d="M4.7193 10.0843C4.72617 12.1587 5.06281 13.7777 5.72322 15.3512C6.61758 17.4819 8.11982 19.5352 10.0265 22.4982L7.24604 24.2697L3.76129 18.8001C1.96236 15.9766 2.44132 12.3538 4.7193 10.0843ZM8.8752 7.24196C11.3525 8.31294 12.8518 9.41488 14.1161 10.8354C15.5097 12.4011 16.6206 14.3428 18.3853 17.1727L11.2916 21.6922C9.31146 18.612 7.93965 16.7555 7.10659 14.7709C6.42684 13.1514 6.11565 11.4457 6.24954 8.91481L8.8752 7.24196ZM10.6364 6.4059C13.5822 5.4806 16.8957 6.59615 18.634 9.32448L20.4464 12.1692L24.5027 9.58491C25.2273 9.12345 26.1888 9.33662 26.6506 10.061C27.1123 10.7857 26.8995 11.7479 26.175 12.2097L19.6512 16.3662C17.9304 13.603 16.7165 11.5013 15.2362 9.83808C14.0198 8.47151 12.6229 7.39266 10.6364 6.4059Z" fill="url(#paint0_linear_2027_14961)"/>
<defs>
<linearGradient id="paint0_linear_2027_14961" x1="10.1205" y1="6.44857" x2="17.3665" y2="17.8218" gradientUnits="userSpaceOnUse">
<stop stop-color="#1B409C"/>
<stop offset="1" stop-color="#FF7852"/>
</linearGradient>
</defs>
</svg>
