<svg width="23" height="24" viewBox="0 0 23 24" fill="none" xmlns="http://www.w3.org/2000/svg">
<path fill-rule="evenodd" clip-rule="evenodd" d="M9.03925 9.83591C9.68889 9.83602 10.2159 10.3646 10.2159 11.0164V16.918C10.2159 17.5697 9.68889 18.0983 9.03925 18.0985C8.38952 18.0985 7.86262 17.5698 7.86261 16.918V11.0164C7.86261 10.3645 8.38952 9.83591 9.03925 9.83591ZM10.0196 16.917C10.0196 17.4601 9.5806 17.9005 9.03925 17.9006C8.94073 17.9006 8.84557 17.8854 8.75586 17.8583C8.81484 17.8762 8.87564 17.8903 8.93873 17.8967L9.03925 17.9006C9.54668 17.9005 9.96453 17.5146 10.0148 17.0188L10.0196 16.917ZM8.05888 16.918L8.06367 17.0188C8.06994 17.0806 8.08289 17.1405 8.10005 17.1984C8.07352 17.1092 8.05888 17.0158 8.05888 16.918Z" fill="#060D1D"/>
<path fill-rule="evenodd" clip-rule="evenodd" d="M12.9607 9.83591C13.6105 9.83591 14.1374 10.3645 14.1374 11.0164V16.918C14.1374 17.5698 13.6105 18.0985 12.9607 18.0985C12.311 18.0985 11.7841 17.5698 11.7841 16.918V11.0164C11.7841 10.3645 12.311 9.83591 12.9607 9.83591ZM12.9607 17.9006C12.8618 17.9006 12.7664 17.8857 12.6764 17.8583C12.7356 17.8763 12.7968 17.8903 12.8602 17.8967L12.9607 17.9006ZM13.9411 16.917C13.9411 17.3201 13.6992 17.6661 13.3533 17.818C13.6699 17.6788 13.8999 17.3781 13.9363 17.0188L13.9411 16.917ZM11.9804 16.918L11.9852 17.0188C11.9914 17.0806 12.0044 17.1405 12.0215 17.1984C11.995 17.1092 11.9804 17.0158 11.9804 16.918Z" fill="#060D1D"/>
<path fill-rule="evenodd" clip-rule="evenodd" d="M13.9411 0C14.5131 0 15.0618 0.228145 15.4663 0.633955C15.8707 1.03976 16.0981 1.59019 16.0981 2.16409V3.93436H19.8234C20.4731 3.93436 21 4.463 21 5.11486C21 5.76673 20.4731 6.29537 19.8234 6.29537H19.0393V20.8523C19.0393 21.6871 18.7085 22.4876 18.1202 23.0779C17.5318 23.6682 16.7339 24 15.9019 24H6.09813C5.2661 24 4.46819 23.6682 3.87985 23.0779C3.29151 22.4876 2.96075 21.6871 2.96075 20.8523V6.29537H2.17664C1.52691 6.29537 1 5.76673 1 5.11486C1 4.463 1.52691 3.93436 2.17664 3.93436H5.90187V2.16409C5.90187 1.59019 6.12927 1.03977 6.53375 0.633955C6.93823 0.228145 7.48686 0 8.05888 0H13.9411ZM3.65103 22.4891C3.7577 22.6496 3.88071 22.8002 4.01867 22.9386C3.81193 22.7312 3.63883 22.4954 3.50359 22.2413L3.65103 22.4891ZM3.15701 20.8523C3.15701 21.2435 3.23468 21.6265 3.38104 21.9809L3.28435 21.7091C3.20086 21.4335 3.15701 21.1457 3.15701 20.8523ZM18.843 20.8514C18.843 21.2428 18.7655 21.6262 18.619 21.9809L18.7157 21.7101C18.7992 21.4345 18.843 21.1447 18.843 20.8514ZM5.31403 20.8523C5.31403 21.061 5.39672 21.2609 5.5438 21.4085C5.69089 21.556 5.89012 21.639 6.09813 21.639H15.9019C16.1099 21.639 16.3091 21.556 16.4562 21.4085C16.6033 21.2609 16.686 21.061 16.686 20.8523V6.29537H5.31403V20.8523ZM8.25515 3.93436H13.7449V2.361H8.25515V3.93436Z" fill="#060D1D"/>
</svg>
