<svg width="28" height="16" viewBox="0 0 28 16" fill="none" xmlns="http://www.w3.org/2000/svg">
<rect x="0.5" y="0.5" width="27" height="15" rx="7.5" stroke="#C1CAE0"/>
<path d="M10.1852 3.80371V4.40527C10.1852 5.02832 10.1852 5.89844 9.94891 6.9834L8.77801 6.88672C8.94988 6.01123 8.98748 5.33447 9.00359 4.78125H5.23309V3.80371H10.1852ZM7.73602 5.95215V7.70312C8.74578 7.66553 9.77166 7.60107 10.7116 7.48828L10.7761 8.32617C8.75652 8.66992 6.51141 8.72363 4.76043 8.72363L4.65301 7.75684C5.23846 7.75684 5.88299 7.75146 6.55437 7.73535V5.95215H7.73602ZM12.5055 3.24512V5.72656H13.7624V6.72559H12.5055V9.21777H11.2809V3.24512H12.5055ZM9.25066 9.3252C11.3024 9.33594 12.5807 10.002 12.5807 11.1084C12.5807 12.2578 11.3024 12.9238 9.25066 12.9238C7.19891 12.9238 5.92059 12.2578 5.92059 11.1084C5.92059 10.002 7.19891 9.33594 9.25066 9.3252ZM9.25066 10.249C7.90789 10.249 7.13445 10.5605 7.13445 11.1084C7.13445 11.6992 7.90789 11.9893 9.25066 11.9893C10.5827 11.9893 11.3454 11.6992 11.3561 11.1084C11.3454 10.5605 10.5827 10.249 9.25066 10.249ZM22.305 4.13672V5.07129C22.2943 6.27441 22.2943 7.62793 21.9183 9.6582L20.7152 9.5293C21.0911 7.63867 21.0911 6.2583 21.1019 5.09277H15.3011V4.13672H22.305ZM23.2288 10.7217V11.6992H14.3773V10.7217H17.6429V7.34863H18.8245V10.7217H23.2288Z" fill="#C1CAE0"/>
</svg>
