<svg width="211" height="79" viewBox="0 0 211 79" fill="none" xmlns="http://www.w3.org/2000/svg">
<g clip-path="url(#clip0_704_8858)">
<path d="M151.412 75.6466L143.891 40.8124H134.568L142.102 75.6795L151.406 75.6466H151.412ZM156.654 76.5821C157.051 78.0185 156.004 79.0002 155.083 79.0002H137.795L129.545 40.8124L129.267 39.5276C128.988 38.2428 130.015 37.4917 130.936 37.4917H148.198L156.429 75.6466L156.647 76.5887L156.654 76.5821Z" fill="black"/>
<path d="M169.96 37.4917C170.881 37.4917 171.597 38.2362 171.55 39.152L171.471 40.8124H161.465L169.629 79.0002H164.606L155.733 37.4917H169.96Z" fill="black"/>
<path d="M209.301 71.9241H181.052L181.94 75.5412H209.308C210.229 75.5412 210.944 76.2858 210.898 77.2016L210.812 79.0003H177.348L175.141 68.7813H203.198L202.35 64.8479H173.949V63.3654C173.995 62.4496 174.777 61.7051 175.698 61.7051H207.101L209.308 71.9241H209.301Z" fill="black"/>
<path d="M196.386 37.4917C196.817 37.4917 197.433 37.5181 197.864 37.5774C199.05 37.7552 200.117 38.1901 200.965 38.8424C201.88 39.5474 202.483 40.4632 202.708 41.4976L206.604 59.3924L201.171 59.4187L196.386 37.4917Z" fill="black"/>
<path d="M196.029 56.0983H194.047L191.284 42.585C191.059 41.544 190.502 39.4884 189.588 38.7834C188.739 38.1311 187.408 37.5118 186.486 37.5118C185.565 37.5118 184.432 37.3866 182.981 38.0784C181.934 38.5791 181.576 38.8954 180.808 39.7849L170.841 54.8794L173.883 59.3795L179.317 59.4058V57.3436C179.35 56.6584 178.687 56.1049 177.839 56.1049H176.997L176.507 55.3736L184.035 43.6194C184.459 43.1319 185.048 43.1582 185.287 43.1978C185.526 43.2307 186.089 43.3757 186.208 43.9489L189.515 59.4058H197.506V57.337C197.539 56.6518 196.877 56.0983 196.029 56.0983Z" fill="black"/>
</g>
<path d="M123.842 66.4887H117.48L106.47 15.2741C105.623 11.3321 103.645 7.83422 100.753 5.15723C98.073 2.6804 94.7338 1.01197 91.0938 0.334907C87.4537 -0.342158 83.7353 0.0096653 80.3413 1.35598C76.6762 2.81018 73.5673 5.36051 71.3516 8.73332L36.4946 61.7867L36.5855 61.8462L46.4762 78.9401L46.5357 78.9057V78.9964H62.7271V71.1781C62.7271 68.5871 60.6227 66.4871 58.0262 66.4871H55.5567L53.9584 63.7257L84.4577 17.3053C85.6737 15.4539 87.4945 15.5681 88.22 15.7041C88.9455 15.8402 90.6864 16.3874 91.1502 18.5515L104.143 78.9964H104.15H128.543V71.1781C128.543 68.5871 126.438 66.4871 123.842 66.4871V66.4887Z" fill="url(#paint0_linear_704_8858)"/>
<path d="M87.347 66.4887H80.9852L69.9757 15.2741C69.128 11.3321 67.1505 7.83422 64.2579 5.15723C61.5784 2.6804 58.2392 1.01197 54.5991 0.334907C50.9591 -0.342158 47.2407 0.0096653 43.8467 1.35598C40.1815 2.81018 37.0727 5.36051 34.857 8.73332L0 61.7883L0.0908837 61.8477L9.98153 78.9417L10.0411 78.9073V78.9979H26.3249V71.1796C26.3249 68.5887 24.2205 66.4887 21.624 66.4887H19.0621L17.4638 63.7272L47.9615 17.3084C49.1775 15.4571 50.9983 15.5712 51.7238 15.7072C52.4493 15.8433 54.1902 16.3906 54.654 18.5547L67.6472 78.9995H67.6535H92.0463V71.1812C92.0463 68.5902 89.9419 66.4902 87.3455 66.4902L87.347 66.4887Z" fill="url(#paint1_linear_704_8858)"/>
<defs>
<linearGradient id="paint0_linear_704_8858" x1="110.179" y1="30.6824" x2="35.9205" y2="62.3304" gradientUnits="userSpaceOnUse">
<stop stop-color="#FF7852"/>
<stop offset="0.95035" stop-color="#1B409C"/>
</linearGradient>
<linearGradient id="paint1_linear_704_8858" x1="74.3069" y1="34.0917" x2="8.57346" y2="58.0452" gradientUnits="userSpaceOnUse">
<stop stop-color="#FF7852"/>
<stop offset="0.95035" stop-color="#1B409C"/>
</linearGradient>
<clipPath id="clip0_704_8858">
<rect width="81.678" height="41.5085" fill="white" transform="translate(129.22 37.4917)"/>
</clipPath>
</defs>
</svg>
