<svg width="57" height="35" viewBox="0 0 57 35" fill="none" xmlns="http://www.w3.org/2000/svg">
<path d="M54.9157 29.4572H52.0947L47.2127 6.76723C46.8368 5.02078 45.9599 3.47107 44.6772 2.28507C43.489 1.18773 42.0083 0.448558 40.3942 0.148593C38.7801 -0.151373 37.1312 0.00449842 35.6262 0.600965C34.001 1.24523 32.6224 2.37513 31.6399 3.86941L16.1831 27.3741L16.2234 27.4004L20.6093 34.9737L20.6357 34.9584V34.9986H27.8155V31.5348C27.8155 30.3869 26.8823 29.4565 25.7309 29.4565H24.6359L23.9271 28.2331L37.4515 7.66713C37.9907 6.8469 38.7981 6.89747 39.1199 6.95774C39.4416 7.01801 40.2135 7.26048 40.4192 8.21926L46.1808 34.9986H46.1836H57.0002V31.5348C57.0002 30.3869 56.0671 29.4565 54.9157 29.4565V29.4572Z" fill="url(#paint0_linear_1090_21597)"/>
<path d="M38.7326 29.4572H35.9115L31.0296 6.76723C30.6537 5.02078 29.7768 3.47107 28.4941 2.28507C27.3059 1.18773 25.8252 0.448558 24.2111 0.148593C22.597 -0.151373 20.9481 0.00449842 19.4431 0.600965C17.8178 1.24523 16.4393 2.37513 15.4568 3.86941L0 27.3748L0.0403009 27.4011L4.42615 34.9744L4.45255 34.9591V34.9993H11.6734V31.5355C11.6734 30.3876 10.7402 29.4572 9.58883 29.4572H8.45276L7.74402 28.2338L21.2677 7.66851C21.8069 6.84828 22.6143 6.89885 22.9361 6.95912C23.2578 7.01939 24.0297 7.26186 24.2354 8.22064L29.997 35H29.9998H40.8164V31.5362C40.8164 30.3883 39.8833 29.4579 38.7319 29.4579L38.7326 29.4572Z" fill="url(#paint1_linear_1090_21597)"/>
<defs>
<linearGradient id="paint0_linear_1090_21597" x1="45.7424" y1="39.8875" x2="54.9266" y2="3.88698" gradientUnits="userSpaceOnUse">
<stop stop-color="#1B409C"/>
<stop offset="0.738848" stop-color="#FF7852"/>
</linearGradient>
<linearGradient id="paint1_linear_1090_21597" x1="29.5588" y1="39.8891" x2="38.7438" y2="3.88738" gradientUnits="userSpaceOnUse">
<stop stop-color="#1B409C"/>
<stop offset="0.738848" stop-color="#FF7852"/>
</linearGradient>
</defs>
</svg>
