<svg width="64" height="64" viewBox="0 0 64 64" fill="none" xmlns="http://www.w3.org/2000/svg">
<circle cx="1.95556" cy="1.95556" r="1.95556" transform="matrix(-1 0 0 1 20.9775 14.2227)" fill="#FBFCFF"/>
<path fill-rule="evenodd" clip-rule="evenodd" d="M20.7838 11.4277C18.9437 11.4277 16.7737 11.8212 15.4301 12.9676V12.9629L11.1422 15.8041C10.5011 16.229 10.5093 17.1776 11.1577 17.5912L14.6486 19.8171C14.961 21.4907 15.3572 22.7658 15.8046 23.7603C15.4515 27.6814 16.4399 32.6463 19.6547 36.682C21.3406 38.7985 23.3867 40.2769 25.5458 41.2758L25.5307 51.0649C25.5293 51.9463 26.2387 52.6619 27.1151 52.6633C27.9916 52.6647 28.7034 51.9513 28.7048 51.0697L28.7181 42.4034C29.6093 42.6344 30.4996 42.7998 31.3729 42.9099C31.3659 42.97 31.362 43.0311 31.3619 43.0931L31.3496 51.0738C31.3483 51.9552 32.0578 52.6708 32.9342 52.6722C33.8107 52.6735 34.5223 51.9601 34.5237 51.0786L34.536 43.0979C34.536 43.0933 34.5357 43.0886 34.5357 43.084C36.1448 43.0603 37.6055 42.8675 38.7889 42.5881L49.3346 51.6105C49.7197 51.94 50.2828 51.9494 50.6786 51.633L52.9333 49.8303C53.3906 49.4646 53.4668 48.7952 53.1033 48.3352L42.5151 34.9396C41.6523 32.3645 39.7543 29.1521 36.6546 25.2608C34.4316 22.4703 32.2911 20.3913 30.3109 18.9417C28.7466 14.983 25.6374 11.4275 20.7838 11.4277ZM18.9327 14.3532C19.9552 14.3532 20.7841 15.1869 20.7842 16.2153C20.7842 17.2437 19.9552 18.0775 18.9327 18.0776C17.9101 18.0776 17.0811 17.2437 17.0811 16.2153C17.0812 15.1869 17.9101 14.3532 18.9327 14.3532Z" fill="url(#paint0_linear_2139_12401)"/>
<defs>
<linearGradient id="paint0_linear_2139_12401" x1="22.4343" y1="58.4335" x2="10.4313" y2="16.6994" gradientUnits="userSpaceOnUse">
<stop stop-color="#1B409C"/>
<stop offset="0.738848" stop-color="#FF7852"/>
</linearGradient>
</defs>
</svg>
