<svg width="14" height="14" viewBox="0 0 14 14" fill="none" xmlns="http://www.w3.org/2000/svg">
<path d="M7 0C10.866 0 14 3.13401 14 7C14 10.866 10.866 14 7 14C3.13401 14 0 10.866 0 7C0 3.13401 3.13401 0 7 0ZM7 1.27051C3.83552 1.27051 1.27051 3.83552 1.27051 7C1.27051 10.1645 3.83552 12.7295 7 12.7295C10.1645 12.7295 12.7295 10.1645 12.7295 7C12.7295 3.83552 10.1645 1.27051 7 1.27051ZM7.91309 10.957H6.08691V5.47852H7.91309V10.957ZM7.91309 4.26172H6.08691V2.43555H7.91309V4.26172Z" fill="#C1CAE0"/>
</svg>
