<svg width="42" height="42" viewBox="0 0 42 42" fill="none" xmlns="http://www.w3.org/2000/svg">
<rect x="0.823242" y="0.294922" width="40.7847" height="40.7847" rx="20.3924" fill="#005FF9"/>
<path fill-rule="evenodd" clip-rule="evenodd" d="M13.8171 12.516C12.7817 12.0558 11.7173 13.1002 12.1578 14.1442L14.8774 20.59C14.9036 20.6521 14.9036 20.7222 14.8774 20.7843L12.1578 27.2301C11.7173 28.2741 12.7817 29.3185 13.8171 28.8583L29.6339 21.8294C30.6237 21.3896 30.6237 19.9847 29.6339 19.5449L13.8171 12.516ZM18.8574 19.937C18.4432 19.937 18.1074 20.2728 18.1074 20.687C18.1074 21.1012 18.4432 21.437 18.8574 21.437L21.8574 21.437C22.2716 21.437 22.6074 21.1012 22.6074 20.687C22.6074 20.2728 22.2716 19.937 21.8574 19.937L18.8574 19.937Z" fill="white"/>
</svg>
