<svg width="30" height="30" viewBox="0 0 30 30" fill="none" xmlns="http://www.w3.org/2000/svg">
<path fill-rule="evenodd" clip-rule="evenodd" d="M15.2373 0C23.2203 0 29.6924 6.5174 29.6924 14.5566L29.6875 14.9316C29.4935 22.6496 23.3338 28.8733 15.6787 29.1045C15.6702 29.1048 15.6618 29.1052 15.6533 29.1055C15.5167 29.1094 15.3797 29.1113 15.2422 29.1113C15.2409 29.1113 15.2396 29.1123 15.2383 29.1123C15.0945 29.1123 14.9504 29.1087 14.8076 29.1045C14.7669 29.1033 14.7262 29.1012 14.6855 29.0996C14.5909 29.096 14.4965 29.0923 14.4023 29.0869C14.3443 29.0836 14.2864 29.0802 14.2285 29.0762C14.1365 29.0698 14.0447 29.0618 13.9531 29.0537C13.9046 29.0494 13.856 29.0458 13.8076 29.041C13.6743 29.0278 13.5414 29.0129 13.4092 28.9961C13.3717 28.9913 13.3343 28.9855 13.2969 28.9805C13.2009 28.9675 13.1051 28.9543 13.0098 28.9395C12.9552 28.931 12.901 28.9212 12.8467 28.9121C12.7579 28.8972 12.6693 28.8817 12.5811 28.8652C12.5345 28.8565 12.4879 28.848 12.4414 28.8389C12.1714 28.7856 11.904 28.7254 11.6396 28.6572C11.6126 28.6502 11.5856 28.6429 11.5586 28.6357C11.45 28.607 11.3419 28.5771 11.2344 28.5459C11.1981 28.5354 11.1621 28.5244 11.126 28.5137C11.0245 28.4834 10.9238 28.4514 10.8232 28.4189C10.7924 28.409 10.7613 28.3998 10.7305 28.3896C10.4717 28.3042 10.216 28.2119 9.96387 28.1123C9.93018 28.099 9.89685 28.0848 9.86328 28.0713C9.75924 28.0293 9.65557 27.9867 9.55273 27.9424C9.53252 27.9337 9.51236 27.9248 9.49219 27.916C9.37417 27.8645 9.25698 27.8114 9.14062 27.7568C9.13021 27.7519 9.11978 27.7471 9.10938 27.7422C8.72689 27.5616 8.35354 27.3648 7.99023 27.1523C7.96744 27.139 7.94459 27.1258 7.92188 27.1123C7.68642 26.9729 7.45519 26.827 7.22852 26.6748C7.19995 26.6556 7.17197 26.6356 7.14355 26.6162C7.05848 26.5582 6.97342 26.5002 6.88965 26.4404C6.865 26.4228 6.84094 26.4045 6.81641 26.3867C6.01127 25.8045 5.26819 25.1411 4.59863 24.4082C4.58527 24.3936 4.5719 24.3789 4.55859 24.3643C4.08797 23.8449 3.65446 23.2911 3.26172 22.707C3.2531 22.6942 3.24393 22.6818 3.23535 22.6689C1.75221 20.4478 0.859973 17.7921 0.788086 14.9316L0.783203 14.5566C0.783203 6.51755 7.25448 0.00024084 15.2373 0ZM15.2373 2C8.37226 2.00024 2.7832 7.60886 2.7832 14.5566C2.78326 16.8654 3.40334 19.0246 4.47949 20.8809C4.77399 20.4826 5.08618 20.072 5.41992 19.6514C6.98285 17.6817 8.48856 16.2147 9.88086 15.1914C10.9807 12.3973 13.1667 9.88769 16.5791 9.8877C17.8728 9.88766 19.399 10.1647 20.3438 10.9736V10.9707L23.3584 12.9766C23.8092 13.2765 23.8035 13.9454 23.3477 14.2373L20.8936 15.8086C20.6739 16.9898 20.3946 17.8898 20.0801 18.5918C20.3022 21.0685 19.7674 24.1342 18.0332 26.793C23.5576 25.5146 27.6922 20.5319 27.6924 14.5566C27.6924 7.60871 22.1026 2 15.2373 2ZM17.8809 11.9521C17.162 11.9523 16.5791 12.5408 16.5791 13.2666C16.5791 13.9924 17.162 14.5809 17.8809 14.5811C18.5998 14.5811 19.1826 13.9925 19.1826 13.2666C19.1826 12.5407 18.5998 11.9521 17.8809 11.9521Z" fill="url(#paint0_linear_131_7570)"/>
<defs>
<linearGradient id="paint0_linear_131_7570" x1="10.999" y1="31.9243" x2="30.4494" y2="4.17493" gradientUnits="userSpaceOnUse">
<stop stop-color="#1B409C"/>
<stop offset="0.614814" stop-color="#FF7852"/>
</linearGradient>
</defs>
</svg>
