<svg width="24" height="25" viewBox="0 0 24 25" fill="none" xmlns="http://www.w3.org/2000/svg">
<g clip-path="url(#clip0_923_12267)">
<path d="M16.8017 7.3821C14.6884 7.17296 12.5818 7.84618 10.9449 9.25417C10.1355 9.95119 9.46538 10.8075 8.97391 11.7743C8.48243 12.7411 8.1789 13.8 8.08037 14.8892C7.97963 15.9783 8.08601 17.0777 8.3938 18.1238C8.7016 19.1698 9.2045 20.1426 9.87373 20.9857C10.5433 21.8299 11.3668 22.5278 12.2956 23.0406C13.2243 23.5532 14.2407 23.8711 15.287 23.9744C16.4132 24.0885 17.5503 23.951 18.6214 23.5713L21.904 24.4141C22.0665 24.4585 22.2371 24.4608 22.4007 24.4211C22.5646 24.3813 22.717 24.2996 22.844 24.1847C22.9708 24.0698 23.0688 23.9247 23.1295 23.7615C23.1902 23.5982 23.2125 23.4216 23.1931 23.2477L23.1773 22.8361C23.2005 22.7484 23.2116 22.6553 23.2066 22.5584L23.1932 22.2971C23.1886 22.2085 23.1727 22.1248 23.1463 22.0474L23.0513 19.6831C23.5854 18.6936 23.9115 17.597 24.0085 16.4663C24.1092 15.3774 24.0026 14.2786 23.6949 13.2326C23.3872 12.1866 22.8842 11.2139 22.215 10.3707C21.5455 9.52662 20.723 8.82781 19.7942 8.31502C18.8654 7.80223 17.8483 7.48533 16.8017 7.3821Z" fill="url(#paint0_linear_923_12267)"/>
<path d="M6.74121 1.37891C7.74943 1.07025 8.8067 0.972016 9.85156 1.08887C11.9622 1.32444 13.8971 2.42395 15.2305 4.14453C15.7922 4.87025 16.2304 5.68891 16.5312 6.56445C14.1619 6.44277 11.8254 7.20953 9.98828 8.72656L9.63574 9.0332C8.83144 9.76785 8.15896 10.6366 7.64844 11.6006C7.06529 12.702 6.70428 13.9081 6.58691 15.1484L6.55371 15.6143C6.52673 16.1894 6.55339 16.7655 6.63086 17.335C6.04947 17.1479 5.48806 16.8941 4.95996 16.5723L1.58203 16.7129C1.41405 16.7226 1.24565 16.6904 1.09277 16.6172C0.939925 16.544 0.80645 16.432 0.704102 16.293C0.60194 16.154 0.533979 15.9909 0.505859 15.8184C0.48639 15.6987 0.487397 15.5769 0.506836 15.458C0.446367 15.294 0.432284 15.1093 0.480469 14.9229L0.545898 14.6699C0.590705 14.4966 0.678868 14.3532 0.792969 14.2441L1.36621 11.8398C1.03297 10.7591 0.923745 9.61624 1.0459 8.48828C1.15636 7.40036 1.47125 6.34547 1.97363 5.38477C2.47604 4.42409 3.15607 3.57632 3.97363 2.88965C4.7918 2.20203 5.73264 1.68778 6.74121 1.37891Z" fill="url(#paint1_linear_923_12267)"/>
</g>
<defs>
<linearGradient id="paint0_linear_923_12267" x1="11.4635" y1="25.9478" x2="7.90537" y2="8.87894" gradientUnits="userSpaceOnUse">
<stop stop-color="#1B409C"/>
<stop offset="0.738848" stop-color="#FF7852"/>
</linearGradient>
<linearGradient id="paint1_linear_923_12267" x1="12.0969" y1="19.6107" x2="17.0303" y2="3.24714" gradientUnits="userSpaceOnUse">
<stop stop-color="#1B409C"/>
<stop offset="0.738848" stop-color="#FF7852"/>
</linearGradient>
<clipPath id="clip0_923_12267">
<rect width="24" height="25" fill="white"/>
</clipPath>
</defs>
</svg>
