<svg width="24" height="24" viewBox="0 0 24 24" fill="none" xmlns="http://www.w3.org/2000/svg">
<path fill-rule="evenodd" clip-rule="evenodd" d="M6.87953 12.1572L7.89443 7.0902C8.10194 6.06468 8.65785 5.14249 9.46789 4.48004C10.2779 3.81759 11.2922 3.45568 12.3387 3.45568C13.3852 3.45568 14.3995 3.81759 15.2096 4.48004C16.0196 5.14249 16.5755 6.06468 16.783 7.0902L17.7979 12.1572C18.1025 13.6691 18.8454 15.0579 19.9341 16.1505L20.2517 16.4664C20.3687 16.5835 20.4522 16.7298 20.4936 16.89C20.535 17.0502 20.5328 17.2186 20.4873 17.3777C20.4417 17.5368 20.3544 17.6808 20.2344 17.7948C20.1144 17.9088 19.9661 17.9887 19.8048 18.0261L18.4609 18.3371C14.4326 19.2684 10.2449 19.2684 6.21657 18.3371L4.87427 18.0261C4.7129 17.9889 4.56441 17.9092 4.44422 17.7953C4.32403 17.6814 4.23652 17.5374 4.19076 17.3783C4.145 17.2191 4.14265 17.0507 4.18398 16.8903C4.2253 16.73 4.30877 16.5836 4.42575 16.4664L4.74332 16.1505C5.83439 15.0597 6.57775 13.6701 6.87953 12.1572ZM4.47322 11.676L5.48649 6.60904C5.80512 5.02679 6.66171 3.60358 7.91078 2.58112C9.15986 1.55867 10.7244 1 12.3387 1C13.953 1 15.5176 1.55867 16.7667 2.58112C18.0157 3.60358 18.8723 5.02679 19.191 6.60904L20.2059 11.676C20.4121 12.7136 20.9228 13.6662 21.6709 14.4141L21.9885 14.7316C22.4158 15.1584 22.721 15.6919 22.8723 16.2765C23.0237 16.8612 23.0156 17.4757 22.849 18.0561C22.6825 18.6366 22.3634 19.1619 21.9251 19.5774C21.4868 19.9929 20.9451 20.2835 20.3565 20.4189L19.0125 20.7298C17.8634 20.9917 16.7066 21.187 15.5422 21.3157C15.3866 22.0496 14.9835 22.7078 14.4005 23.18C13.8175 23.6523 13.0899 23.91 12.3395 23.91C11.5892 23.91 10.8616 23.6523 10.2786 23.18C9.69558 22.7078 9.29251 22.0496 9.13687 21.3157C7.96942 21.1892 6.81058 20.993 5.66655 20.7282L4.32099 20.4172C3.73298 20.2812 3.19207 19.9904 2.75433 19.575C2.3166 19.1595 1.99797 18.6346 1.83148 18.0546C1.66499 17.4746 1.6567 16.8606 1.80747 16.2763C1.95825 15.692 2.26259 15.1587 2.68896 14.7316L3.00816 14.4125C3.75624 13.6645 4.26697 12.7104 4.47322 11.6744" fill="#727C94"/>
</svg>
