<svg width="77" height="124" viewBox="0 0 77 124" fill="none" xmlns="http://www.w3.org/2000/svg">
<ellipse cx="35" cy="63" rx="23" ry="6" fill="#ECF1FF"/>
<circle cx="43" cy="118" r="6" fill="#FBFCFF"/>
<path d="M63.7988 14.7109C64.4611 14.3525 65.2922 14.5941 65.6543 15.251L67.4209 17.251C67.7341 17.8195 67.5975 18.5283 67.0957 18.9424L54.3193 29.0586C53.5501 29.6679 53.1386 30.6139 53.126 31.5938C53.1107 32.7887 53.0034 34.1129 52.7812 35.5068L51.8643 39.46C51.5325 40.538 51.1274 41.6259 50.6387 42.7002L49.9824 43.8584L49.0615 60.1973C48.9992 61.3017 48.048 62.1468 46.9365 62.085C45.8251 62.0231 44.9749 61.078 45.0371 59.9736L45.6084 49.8359C44.3901 50.9825 42.9951 52.0182 41.3994 52.8896C39.3401 54.0143 37.1944 54.7591 35.0654 55.1973L30.9766 61.5342C30.3756 62.4652 29.1284 62.7358 28.1914 62.1387C27.2544 61.5415 26.9821 60.3022 27.583 59.3711L29.958 55.6904C27.9007 55.6712 25.9449 55.3954 24.1963 54.9297C22.8389 55.2773 19.6117 55.6808 17.4248 55.71L12.2412 59.001C10.9455 59.7162 9.68466 59.5729 9.68457 57.5703V51.5488C9.36212 49.4156 9.27819 48.2771 9.68359 45.9551C10.7526 39.8297 15.9389 36.6808 21.2939 35.5703C23.5651 33.3877 26.668 31.1397 30.6895 28.9434C36.2976 25.8805 40.782 24.1862 44.2314 23.6592L63.7988 14.7109ZM19.0928 48.0137C17.8059 47.6028 16.4272 48.3062 16.0137 49.585C15.6003 50.8637 16.3079 52.2336 17.5947 52.6445C18.8816 53.0554 20.2602 52.3518 20.6738 51.0732C21.0873 49.7946 20.3794 48.4248 19.0928 48.0137Z" fill="url(#paint0_linear_1090_21629)"/>
<defs>
<linearGradient id="paint0_linear_1090_21629" x1="12.156" y1="31.7992" x2="63.3176" y2="40.7314" gradientUnits="userSpaceOnUse">
<stop stop-color="#FF7852"/>
<stop offset="1" stop-color="#1B409C"/>
</linearGradient>
</defs>
</svg>
