<svg width="24" height="24" viewBox="0 0 24 24" fill="none" xmlns="http://www.w3.org/2000/svg">
<g clip-path="url(#clip0_1090_21608)">
<mask id="path-1-inside-1_1090_21608" fill="white">
<path d="M15.6159 5.4164C13.3382 5.20007 11.0677 5.89715 9.30355 7.35405C8.43125 8.07527 7.70967 8.96135 7.18003 9.96165C6.65039 10.962 6.32269 12.0569 6.21646 13.1837C6.10788 14.3106 6.22283 15.4482 6.55454 16.5306C6.88625 17.6129 7.42832 18.6192 8.14962 19.4917C8.87117 20.3651 9.75791 21.0877 10.7589 21.6183C11.7599 22.1489 12.8559 22.4773 13.9837 22.5841C15.1973 22.7022 16.4222 22.5592 17.5765 22.1664L21.1143 23.0384C21.1463 23.0467 21.1792 23.0519 21.2116 23.0574L21.4188 23.1065C22.0025 23.2441 22.5547 22.7834 22.5237 22.1845L22.4971 21.6699C22.497 21.668 22.4968 21.6659 22.4967 21.664L22.3516 18.1442C22.9272 17.1204 23.2787 15.9857 23.3832 14.8158C23.4917 13.6891 23.3767 12.5522 23.045 11.4699C22.7133 10.3876 22.1712 9.38128 21.4499 8.50881C20.7283 7.63534 19.8417 6.91277 18.8407 6.38219C17.8396 5.85162 16.7438 5.5232 15.6159 5.4164Z"/>
</mask>
<path d="M15.6159 5.4164L15.4273 7.40749L15.4267 7.40744L15.6159 5.4164ZM9.30355 7.35405L8.02911 5.81267L8.03 5.81194L9.30355 7.35405ZM7.18003 9.96165L5.41251 9.02579L5.41251 9.02578L7.18003 9.96165ZM6.21646 13.1837L8.20764 13.3714L8.20724 13.3756L6.21646 13.1837ZM6.55454 16.5306L4.64233 17.1166L4.64233 17.1166L6.55454 16.5306ZM8.14962 19.4917L9.69105 18.2173L9.6915 18.2179L8.14962 19.4917ZM10.7589 21.6183L9.82228 23.3854L9.82223 23.3854L10.7589 21.6183ZM13.9837 22.5841L14.1723 20.593L14.1774 20.5935L13.9837 22.5841ZM17.5765 22.1664L16.9322 20.273L17.4865 20.0844L18.0551 20.2245L17.5765 22.1664ZM21.1143 23.0384L21.5929 21.0965L21.6075 21.1001L21.622 21.1039L21.1143 23.0384ZM21.2116 23.0574L21.5459 21.0855L21.6098 21.0964L21.673 21.1114L21.2116 23.0574ZM21.4188 23.1065L20.96 25.0532L20.9574 25.0526L21.4188 23.1065ZM22.5237 22.1845L24.5211 22.0812L24.5211 22.0813L22.5237 22.1845ZM22.4971 21.6699L20.4998 21.7732L20.4998 21.7731L22.4971 21.6699ZM22.4967 21.664L20.5 21.7789L20.4991 21.7626L20.4984 21.7464L22.4967 21.664ZM22.3516 18.1442L20.3533 18.2266L20.3299 17.6591L20.6083 17.1641L22.3516 18.1442ZM23.3832 14.8158L21.3911 14.6379L21.3924 14.624L23.3832 14.8158ZM23.045 11.4699L24.9572 10.8839L24.9572 10.8839L23.045 11.4699ZM21.4499 8.50881L19.9085 9.78316L19.9081 9.78261L21.4499 8.50881ZM18.8407 6.38219L19.7773 4.61506L19.7773 4.61506L18.8407 6.38219ZM15.6159 5.4164L15.4267 7.40744C13.677 7.24125 11.9325 7.77677 10.5771 8.89615L9.30355 7.35405L8.03 5.81194C10.2028 4.01753 12.9994 3.15889 15.805 3.42536L15.6159 5.4164ZM9.30355 7.35405L10.578 8.89542C9.90824 9.44916 9.35422 10.1295 8.94756 10.8975L7.18003 9.96165L5.41251 9.02578C6.06513 7.79322 6.95426 6.70138 8.02911 5.81267L9.30355 7.35405ZM7.18003 9.96165L8.94756 10.8975C8.54068 11.666 8.28915 12.5067 8.20763 13.3714L6.21646 13.1837L4.22529 12.996C4.35623 11.607 4.7601 10.258 5.41251 9.02579L7.18003 9.96165ZM6.21646 13.1837L8.20724 13.3756C8.1239 14.2404 8.21213 15.1137 8.46676 15.9445L6.55454 16.5306L4.64233 17.1166C4.23353 15.7827 4.09185 14.3808 4.22568 12.9919L6.21646 13.1837ZM6.55454 16.5306L8.46676 15.9445C8.72136 16.7753 9.13744 17.5477 9.69105 18.2173L8.14962 19.4917L6.60818 20.7661C5.71921 19.6908 5.05114 18.4505 4.64233 17.1166L6.55454 16.5306ZM8.14962 19.4917L9.6915 18.2179C10.2456 18.8886 10.9267 19.4437 11.6955 19.8512L10.7589 21.6183L9.82223 23.3854C8.58916 22.7318 7.49673 21.8416 6.60773 20.7655L8.14962 19.4917ZM10.7589 21.6183L11.6955 19.8512C12.4646 20.2588 13.3064 20.511 14.1723 20.593L13.9837 22.5841L13.7951 24.5752C12.4053 24.4436 11.0552 24.0389 9.82228 23.3854L10.7589 21.6183ZM13.9837 22.5841L14.1774 20.5935C15.1069 20.6839 16.0462 20.5745 16.9322 20.273L17.5765 22.1664L18.2208 24.0598C16.7981 24.5439 15.2877 24.7204 13.79 24.5747L13.9837 22.5841ZM17.5765 22.1664L18.0551 20.2245L21.5929 21.0965L21.1143 23.0384L20.6357 24.9802L17.0979 24.1083L17.5765 22.1664ZM21.1143 23.0384L21.622 21.1039C21.5746 21.0914 21.5396 21.0848 21.5289 21.0828C21.523 21.0817 21.5202 21.0812 21.5236 21.0818C21.5252 21.0821 21.5273 21.0824 21.5313 21.0831C21.5346 21.0836 21.5403 21.0846 21.5459 21.0855L21.2116 23.0574L20.8773 25.0293C20.8769 25.0292 20.834 25.0221 20.7967 25.0152C20.7534 25.0071 20.686 24.9937 20.6066 24.9728L21.1143 23.0384ZM21.2116 23.0574L21.673 21.1114L21.8802 21.1605L21.4188 23.1065L20.9574 25.0526L20.7502 25.0035L21.2116 23.0574ZM21.4188 23.1065L21.8776 21.1599C21.1646 20.9918 20.4886 21.5552 20.5264 22.2877L22.5237 22.1845L24.5211 22.0813C24.6208 24.0117 22.8405 25.4964 20.96 25.0532L21.4188 23.1065ZM22.5237 22.1845L20.5264 22.2878L20.4998 21.7732L22.4971 21.6699L24.4945 21.5666L24.5211 22.0812L22.5237 22.1845ZM22.4971 21.6699L20.4998 21.7731C20.5006 21.7895 20.5015 21.8026 20.502 21.81C20.5023 21.8139 20.5026 21.8171 20.5027 21.8191C20.5029 21.821 20.503 21.8224 20.503 21.8225C20.503 21.8231 20.5029 21.8215 20.5028 21.8204C20.5027 21.8188 20.5025 21.8161 20.5022 21.8127C20.5018 21.8062 20.5009 21.7941 20.5 21.7789L22.4967 21.664L24.4934 21.5491C24.4926 21.5349 24.4918 21.5237 24.4914 21.5182C24.4912 21.5153 24.491 21.5131 24.4909 21.5121C24.4909 21.5114 24.4908 21.5103 24.4909 21.5115C24.4909 21.512 24.4911 21.514 24.4912 21.5164C24.4914 21.5188 24.4917 21.5225 24.492 21.5269C24.4926 21.5353 24.4936 21.5494 24.4945 21.5667L22.4971 21.6699ZM22.4967 21.664L20.4984 21.7464L20.3533 18.2266L22.3516 18.1442L24.3499 18.0619L24.495 21.5816L22.4967 21.664ZM22.3516 18.1442L20.6083 17.1641C21.045 16.3874 21.3118 15.5261 21.3911 14.6379L23.3832 14.8158L25.3753 14.9937C25.2457 16.4452 24.8095 17.8535 24.095 19.1244L22.3516 18.1442ZM23.3832 14.8158L21.3924 14.624C21.4757 13.7595 21.3874 12.8869 21.1328 12.0559L23.045 11.4699L24.9572 10.8839C25.3659 12.2175 25.5078 13.6187 25.374 15.0076L23.3832 14.8158ZM23.045 11.4699L21.1328 12.056C20.8782 11.2252 20.4621 10.4528 19.9085 9.78316L21.4499 8.50881L22.9914 7.23446C23.8804 8.30974 24.5484 9.54995 24.9572 10.8839L23.045 11.4699ZM21.4499 8.50881L19.9081 9.78261C19.3539 9.1118 18.673 8.55685 17.9041 8.14933L18.8407 6.38219L19.7773 4.61506C21.0105 5.26868 22.1028 6.15888 22.9918 7.235L21.4499 8.50881ZM18.8407 6.38219L17.9041 8.14933C17.1349 7.74165 16.2932 7.48948 15.4273 7.40749L15.6159 5.4164L15.8044 3.42531C17.1944 3.55692 18.5444 3.96159 19.7773 4.61506L18.8407 6.38219Z" fill="#727C94" mask="url(#path-1-inside-1_1090_21608)"/>
<path d="M16.2206 6.26389C15.9704 5.73901 15.6603 5.24308 15.2936 4.78834C14.0454 3.24206 12.234 2.25462 10.2581 2.04294C9.27968 1.93788 8.28952 2.02593 7.34541 2.3035C6.40138 2.58107 5.52126 3.04234 4.75543 3.6602C3.99014 4.2772 3.35437 5.03958 2.88402 5.90278C2.41369 6.76614 2.11712 7.71436 2.01368 8.69206C1.8993 9.70582 2.00248 10.7331 2.31446 11.7044L1.552 14.7762C1.55008 14.783 1.5483 14.7903 1.54652 14.7972L1.48526 15.034C1.34472 15.5776 1.76609 16.105 2.32726 16.0881L2.45068 16.0835C2.47244 16.0838 2.49469 16.0856 2.5165 16.0844L5.67879 15.9574C6.18706 16.2547 6.72803 16.4876 7.28873 16.6567" stroke="#727C94" stroke-width="1.93977"/>
</g>
<defs>
<clipPath id="clip0_1090_21608">
<rect width="24" height="24" fill="white"/>
</clipPath>
</defs>
</svg>
