<svg width="24" height="24" viewBox="0 0 24 24" fill="none" xmlns="http://www.w3.org/2000/svg">
<path d="M17.2251 2.05525C16.1308 2.05253 15.0583 2.36369 14.133 2.95234C13.2078 3.54099 12.468 4.38281 12.0002 5.37937C11.4484 4.17131 10.5017 3.19065 9.31832 2.60132C8.13493 2.01199 6.78657 1.84972 5.49865 2.14162C4.21074 2.43352 3.06133 3.16192 2.24256 4.20503C1.42379 5.24815 0.985298 6.54277 1.00038 7.87247C1.00038 12.7441 8.02941 18.8548 10.8497 21.1106C11.5292 21.654 12.4712 21.654 13.1507 21.1106C15.971 18.8548 23 12.7441 23 7.87247C23 6.32964 22.3916 4.85001 21.3086 3.75907C20.2256 2.66813 18.7567 2.05525 17.2251 2.05525Z" fill="#727C94"/>
</svg>
