<svg width="24" height="24" viewBox="0 0 24 24" fill="none" xmlns="http://www.w3.org/2000/svg">
<path d="M19.8148 14.3385C21.2406 17.3635 20.7254 21.2695 18.1789 22.6387C16.2833 23.6579 14.7459 24.0004 11.7979 24.0004C8.84997 24.0004 7.31351 23.6579 5.41773 22.6387C2.87088 21.2695 2.35504 17.3628 3.78102 14.3375L4.34411 13.1432C5.65998 10.7762 7.50514 11.388 9.04973 12.2832C9.88788 12.769 10.8186 13.0395 11.7988 13.0395C12.7785 13.0394 13.7086 12.769 14.5462 12.2835C16.0908 11.3882 17.977 10.7762 19.2515 13.1434L19.8148 14.3385Z" fill="url(#paint0_linear_1090_21607)"/>
<path d="M16.686 5.71289C16.686 8.37076 14.4977 10.5254 11.7983 10.5254C9.09886 10.5254 6.91054 8.37076 6.91054 5.71289C6.91054 3.05502 9.09886 0.900391 11.7983 0.900391C14.4977 0.900391 16.686 3.05502 16.686 5.71289Z" fill="url(#paint1_linear_1090_21607)"/>
<defs>
<linearGradient id="paint0_linear_1090_21607" x1="15.7428" y1="27.2272" x2="24.3193" y2="5.26937" gradientUnits="userSpaceOnUse">
<stop stop-color="#1B409C"/>
<stop offset="0.738848" stop-color="#FF7852"/>
</linearGradient>
<linearGradient id="paint1_linear_1090_21607" x1="15.7428" y1="27.2272" x2="24.3193" y2="5.26937" gradientUnits="userSpaceOnUse">
<stop stop-color="#1B409C"/>
<stop offset="0.738848" stop-color="#FF7852"/>
</linearGradient>
</defs>
</svg>
