<svg width="24" height="24" viewBox="0 0 24 24" fill="none" xmlns="http://www.w3.org/2000/svg">
<g clip-path="url(#clip0_1090_21610)">
<path d="M3.74023 4.02832H10.3643C10.3843 4.02836 10.3948 4.0311 10.3984 4.03223C10.4021 4.03337 10.4041 4.03434 10.4053 4.03516C10.4086 4.03743 10.4161 4.04421 10.4209 4.05566C10.4216 4.0574 10.4215 4.05919 10.4219 4.06055C10.4198 4.06303 10.4181 4.06736 10.4141 4.07129C10.4052 4.07992 10.3876 4.08875 10.3643 4.08887H3.74023C2.64006 4.08928 1.7037 4.96845 1.70312 6.10742V20.1318C1.70312 21.2007 2.52676 22.0397 3.53613 22.1406L3.74023 22.1514H18.0752C19.1759 22.1513 20.1123 21.2715 20.1123 20.1318V13.7773C20.1123 13.7768 20.1127 13.7758 20.1133 13.7744C20.1141 13.7725 20.1162 13.7695 20.1201 13.7656C20.1314 13.7546 20.1389 13.7504 20.1416 13.749C20.1444 13.7476 20.1476 13.7458 20.1514 13.7451C20.1606 13.7436 20.1788 13.7443 20.2002 13.7529C20.2146 13.7588 20.2227 13.766 20.2266 13.7695C20.2267 13.7715 20.2275 13.774 20.2275 13.7773V20.1318C20.2275 21.2564 19.2888 22.2118 18.0752 22.2119H3.74023C2.52667 22.2116 1.58789 21.2561 1.58789 20.1318V6.1084L1.59863 5.89941C1.70639 4.86806 2.60279 4.02857 3.74023 4.02832ZM20.5254 1.78711C21.0792 1.78711 21.6055 2.00264 21.9893 2.37793C22.3242 2.70562 22.5277 3.13151 22.5732 3.58008L22.583 3.77441C22.5829 4.2928 22.372 4.79549 21.9893 5.16992L11.9561 14.9844L8.07715 15.9326L9.0332 12.1885L19.0615 2.37793C19.4452 2.00254 19.9715 1.7872 20.5254 1.78711Z" stroke="#727C94" stroke-width="2.375" stroke-linecap="round" stroke-linejoin="round"/>
</g>
<defs>
<clipPath id="clip0_1090_21610">
<rect width="24" height="24" fill="white"/>
</clipPath>
</defs>
</svg>
