<svg width="24" height="24" viewBox="0 0 24 24" fill="none" xmlns="http://www.w3.org/2000/svg">
<g clip-path="url(#clip0_1259_22671)">
<mask id="path-1-inside-1_1259_22671" fill="white">
<path d="M15.6159 5.4164C13.3382 5.20007 11.0677 5.89715 9.30355 7.35405C8.43125 8.07527 7.70967 8.96135 7.18003 9.96165C6.65039 10.962 6.32269 12.0569 6.21646 13.1837C6.10788 14.3106 6.22283 15.4482 6.55454 16.5306C6.88625 17.6129 7.42832 18.6192 8.14962 19.4917C8.87117 20.3651 9.75792 21.0877 10.7589 21.6183C11.7599 22.1489 12.8559 22.4773 13.9837 22.5841C15.1973 22.7022 16.4222 22.5592 17.5765 22.1664L21.1143 23.0384C21.2896 23.0844 21.4737 23.0873 21.6502 23.0461C21.8267 23.0049 21.9907 22.921 22.1276 22.8021C22.2644 22.6832 22.3706 22.5327 22.4361 22.3635C22.5015 22.1945 22.5244 22.0115 22.5034 21.8314L22.3516 18.1442C22.9272 17.1204 23.2787 15.9857 23.3832 14.8158C23.4917 13.6891 23.3767 12.5522 23.045 11.4699C22.7133 10.3876 22.1712 9.38128 21.4499 8.50881C20.7283 7.63534 19.8417 6.91277 18.8407 6.38219C17.8396 5.85162 16.7438 5.5232 15.6159 5.4164Z"/>
</mask>
<path d="M15.6159 5.4164L15.3915 7.7858L15.3908 7.78574L15.6159 5.4164ZM9.30355 7.35405L7.78697 5.51981L7.78803 5.51894L9.30355 7.35405ZM7.18003 9.96165L5.07667 8.84797L5.07668 8.84796L7.18003 9.96165ZM6.21646 13.1837L8.58596 13.4071L8.58549 13.412L6.21646 13.1837ZM6.55454 16.5306L4.27901 17.228L4.27901 17.2279L6.55454 16.5306ZM8.14962 19.4917L9.98393 17.9752L9.98446 17.9759L8.14962 19.4917ZM10.7589 21.6183L9.64433 23.7212L9.64427 23.7212L10.7589 21.6183ZM13.9837 22.5841L14.2081 20.2147L14.2142 20.2153L13.9837 22.5841ZM17.5765 22.1664L16.8098 19.9133L17.4695 19.6888L18.146 19.8556L17.5765 22.1664ZM21.1143 23.0384L21.6839 20.7275L21.7012 20.7318L21.7185 20.7363L21.1143 23.0384ZM21.6502 23.0461L22.1913 25.3638L22.1904 25.364L21.6502 23.0461ZM22.1276 22.8021L23.6886 24.5987L23.6883 24.599L22.1276 22.8021ZM22.4361 22.3635L24.6556 23.2228L24.6555 23.223L22.4361 22.3635ZM22.5034 21.8314L20.1395 22.108L20.1291 22.0189L20.1254 21.9292L22.5034 21.8314ZM22.3516 18.1442L19.9736 18.2421L19.9459 17.5669L20.277 16.9778L22.3516 18.1442ZM23.3832 14.8158L21.0126 14.6041L21.0134 14.5958L21.0142 14.5876L23.3832 14.8158ZM23.045 11.4699L25.3206 10.7726L25.3206 10.7726L23.045 11.4699ZM21.4499 8.50881L19.6156 10.0253L19.6151 10.0246L21.4499 8.50881ZM18.8407 6.38219L19.9552 4.2793L19.9552 4.2793L18.8407 6.38219ZM15.6159 5.4164L15.3908 7.78574C13.7414 7.62907 12.0968 8.1339 10.8191 9.18915L9.30355 7.35405L7.78803 5.51894C10.0385 3.6604 12.9351 2.77107 15.8409 3.04706L15.6159 5.4164ZM9.30355 7.35405L10.8201 9.18828C10.1889 9.7102 9.66668 10.3514 9.28339 11.0753L7.18003 9.96165L5.07668 8.84796C5.75266 7.57127 6.67363 6.44034 7.78697 5.51981L9.30355 7.35405ZM7.18003 9.96165L9.28339 11.0753C8.89983 11.7997 8.66278 12.5922 8.58596 13.4071L6.21646 13.1837L3.84697 12.9604C3.9826 11.5215 4.40094 10.1242 5.07667 8.84797L7.18003 9.96165ZM6.21646 13.1837L8.58549 13.412C8.50695 14.2271 8.5901 15.0501 8.83008 15.8332L6.55454 16.5306L4.27901 17.2279C3.85557 15.8463 3.70881 14.3941 3.84743 12.9555L6.21646 13.1837ZM6.55454 16.5306L8.83008 15.8332C9.07003 16.6161 9.46217 17.3441 9.98393 17.9752L8.14962 19.4917L6.31531 21.0082C5.39448 19.8944 4.70247 18.6097 4.27901 17.228L6.55454 16.5306ZM8.14962 19.4917L9.98446 17.9759C10.5068 18.6081 11.1487 19.1313 11.8735 19.5155L10.7589 21.6183L9.64427 23.7212C8.3671 23.0442 7.23558 22.1221 6.31477 21.0075L8.14962 19.4917ZM10.7589 21.6183L11.8734 19.5154C12.5985 19.8997 13.392 20.1374 14.2081 20.2147L13.9837 22.5841L13.7593 24.9535C12.3197 24.8172 10.9213 24.398 9.64433 23.7212L10.7589 21.6183ZM13.9837 22.5841L14.2142 20.2153C15.0898 20.3005 15.9747 20.1974 16.8098 19.9133L17.5765 22.1664L18.3432 24.4195C16.8696 24.921 15.3048 25.1039 13.7532 24.9529L13.9837 22.5841ZM17.5765 22.1664L18.146 19.8556L21.6839 20.7275L21.1143 23.0384L20.5448 25.3492L17.0069 24.4773L17.5765 22.1664ZM21.1143 23.0384L21.7185 20.7363C21.5225 20.6849 21.3138 20.6807 21.1099 20.7283L21.6502 23.0461L22.1904 25.364C21.6336 25.4938 21.0567 25.4838 20.5102 25.3404L21.1143 23.0384ZM21.6502 23.0461L21.1091 20.7285C20.9073 20.7756 20.7216 20.8709 20.5669 21.0053L22.1276 22.8021L23.6883 24.599C23.2598 24.9711 22.7461 25.2343 22.1913 25.3638L21.6502 23.0461ZM22.1276 22.8021L20.5666 21.0056C20.4131 21.1389 20.2921 21.3093 20.2167 21.5041L22.4361 22.3635L24.6555 23.223C24.4491 23.756 24.1158 24.2275 23.6886 24.5987L22.1276 22.8021ZM22.4361 22.3635L20.2166 21.5043C20.141 21.6996 20.1159 21.9068 20.1395 22.108L22.5034 21.8314L24.8672 21.5548C24.9329 22.1162 24.8621 22.6893 24.6556 23.2228L22.4361 22.3635ZM22.5034 21.8314L20.1254 21.9292L19.9736 18.2421L22.3516 18.1442L24.7296 18.0464L24.8813 21.7335L22.5034 21.8314ZM22.3516 18.1442L20.277 16.9778C20.6873 16.2481 20.9381 15.4388 21.0126 14.6041L23.3832 14.8158L25.7538 15.0275C25.6194 16.5325 25.1672 17.9928 24.4262 19.3106L22.3516 18.1442ZM23.3832 14.8158L21.0142 14.5876C21.0926 13.7729 21.0095 12.9504 20.7695 12.1673L23.045 11.4699L25.3206 10.7726C25.7439 12.1539 25.8908 13.6053 25.7522 15.044L23.3832 14.8158ZM23.045 11.4699L20.7695 12.1673C20.5295 11.3844 20.1374 10.6564 19.6156 10.0253L21.4499 8.50881L23.2843 6.99233C24.2051 8.10615 24.8971 9.3908 25.3206 10.7726L23.045 11.4699ZM21.4499 8.50881L19.6151 10.0246C19.0927 9.39233 18.4509 8.86923 17.7261 8.48508L18.8407 6.38219L19.9552 4.2793C21.2326 4.95631 22.364 5.87835 23.2848 6.99298L21.4499 8.50881ZM18.8407 6.38219L17.7261 8.48509C17.001 8.10075 16.2076 7.86307 15.3915 7.7858L15.6159 5.4164L15.8402 3.047C17.28 3.18332 18.6783 3.60249 19.9552 4.2793L18.8407 6.38219Z" fill="#FBFCFF" mask="url(#path-1-inside-1_1259_22671)"/>
<path d="M16.219 6.26313C15.9688 5.73834 15.6587 5.2425 15.2921 4.78785C14.0441 3.24184 12.2331 2.25457 10.2575 2.04294C9.27925 1.93789 8.28927 2.02593 7.34533 2.30344C6.40147 2.58097 5.52151 3.04215 4.75581 3.6599C3.99066 4.27679 3.35501 5.03904 2.88474 5.90208C2.4145 6.76529 2.11798 7.71334 2.01456 8.69086C1.9002 9.70444 2.00335 10.7315 2.31528 11.7027L1.55296 14.7739C1.55104 14.7807 1.54926 14.788 1.54748 14.7949L1.48623 15.0317C1.34571 15.5752 1.76701 16.1025 2.32808 16.0856L2.45148 16.081C2.47324 16.0813 2.49549 16.0831 2.51729 16.0819L5.67901 15.9549C6.18719 16.2522 6.72806 16.485 7.28866 16.6541" stroke="#FBFCFF" stroke-width="2.38"/>
</g>
<defs>
<clipPath id="clip0_1259_22671">
<rect width="24" height="24" fill="white"/>
</clipPath>
</defs>
</svg>
