<svg width="17" height="11" viewBox="0 0 17 11" fill="none" xmlns="http://www.w3.org/2000/svg">
<path d="M3.38953 1.72459C2.95845 2.95642 2.81822 3.98715 2.87979 5.05902C2.96326 6.51065 3.42267 8.04442 3.9321 10.2022L1.91218 10.6694L0.992513 6.69335C0.517969 4.6411 1.56221 2.59297 3.38953 1.72459ZM6.45078 0.910274C7.69578 2.06545 8.35387 3.0334 8.8059 4.14137C9.30411 5.3626 9.55866 6.74693 10.0118 8.79598L4.85214 9.98942C4.32377 7.74669 3.90037 6.35745 3.82261 5.00533C3.75917 3.90189 3.93259 2.82494 4.54314 1.35151L6.45078 0.910274ZM7.67039 0.783541C9.61241 0.852246 11.3449 2.20928 11.8038 4.1927L12.2822 6.26114L15.2307 5.57915C15.7572 5.45772 16.2827 5.78553 16.4046 6.31198C16.5264 6.83858 16.1984 7.36466 15.672 7.48679L10.9328 8.58296C10.4918 6.58273 10.2089 5.08213 9.67969 3.7849C9.24472 2.71878 8.64213 1.78594 7.67039 0.783541Z" fill="url(#paint0_linear_2207_14867)"/>
<defs>
<linearGradient id="paint0_linear_2207_14867" x1="7.35651" y1="0.70078" x2="9.26869" y2="8.96787" gradientUnits="userSpaceOnUse">
<stop stop-color="#1B409C"/>
<stop offset="1" stop-color="#FF7852"/>
</linearGradient>
</defs>
</svg>
