<svg width="70" height="70" viewBox="0 0 70 70" fill="none" xmlns="http://www.w3.org/2000/svg">
<circle cx="2.13889" cy="2.13889" r="2.13889" transform="matrix(-1 0 0 1 18.6665 31.1113)" fill="#FBFCFF"/>
<path d="M25.191 12.7132C28.1418 21.3938 25.897 34.6608 24.4057 40.2093C28.8115 38.6803 38.0913 35.1454 39.9639 33.2387C42.3046 30.8552 45.6687 25.2002 45.1115 23.2105C44.4225 20.7504 42.779 21.8823 41.0651 22.6831C41.9297 20.8206 44.7379 17.236 42.7251 14.9984C40.7123 12.7609 38.8204 15.3491 37.5882 16.5237C38.6221 12.3789 38.0659 9.06913 35.5067 8.07715C32.9475 7.08518 32.5546 11.2222 32.242 12.919C32.4898 11.6624 28.8706 5.95037 26.1684 6.47608C23.4662 7.00179 24.3246 10.1646 25.191 12.7132Z" fill="url(#paint0_linear_725_9309)"/>
<path d="M58.1792 16.2808C56.2328 14.3351 54.0901 16.8146 52.4614 18.9575C47.4992 25.4867 37.1694 30.6175 31.1558 32.9634C30.5259 32.7022 29.9156 32.4739 29.3257 32.2788C26.389 28.7092 21.9836 26.0707 16.9507 27.688C15.0425 28.3011 12.9233 29.4317 11.9106 31.064L11.9087 31.0591L8.40576 35.4233C7.88208 36.076 8.20549 37.0537 9.01514 37.2651L13.3745 38.4028C14.254 40.028 15.0882 41.2136 15.8823 42.0923C16.6989 45.7305 18.8394 49.8489 22.4761 52.8989L16.3052 53.5347C15.3697 53.6312 14.6893 54.4682 14.7856 55.4038C14.8821 56.3394 15.7192 57.0197 16.6548 56.9233L27.3423 55.8228C28.2535 56.184 29.174 56.4586 30.0952 56.6587L24.8511 58.7222C23.7614 59.1509 23.1572 60.2082 23.5015 61.0835C23.8459 61.9586 25.0084 62.3207 26.0981 61.8921L41.1558 55.9702L41.7231 55.8218C42.8975 55.4253 43.9673 54.9661 44.894 54.4897C45.4888 54.1841 46.2335 54.3885 46.5474 54.979L52.8599 66.856C53.3685 67.068 53.9558 66.8898 54.2612 66.4312L62.0288 57.4614C62.3814 56.9312 62.2381 56.2141 61.7085 55.8599L47.2935 44.7456C46.8571 44.1537 46.3417 43.5414 45.7427 42.9106C49.1798 43.1146 53.7972 42.6345 54.895 41.3433C56.5494 39.3969 54.6919 38.6661 53.0698 37.6929C55.0976 37.3685 59.6397 37.6927 60.3696 34.7729C61.099 31.8538 57.8955 31.7316 56.2329 31.3667C60.2471 29.9069 62.6807 27.5957 62.0728 24.9194C61.4644 22.2432 57.8146 24.23 56.2329 24.9194C57.4134 24.4219 60.1256 18.2272 58.1792 16.2808ZM15.8823 31.354C16.9697 31.0047 18.1354 31.6036 18.4849 32.6909C18.8339 33.7782 18.2352 34.943 17.1479 35.2925C16.0605 35.6417 14.8958 35.043 14.5464 33.9556C14.1973 32.8683 14.7952 31.7035 15.8823 31.354Z" fill="url(#paint1_linear_725_9309)"/>
<defs>
<linearGradient id="paint0_linear_725_9309" x1="24.142" y1="8.22099" x2="31.1358" y2="35.7991" gradientUnits="userSpaceOnUse">
<stop stop-color="#FF7852"/>
<stop offset="1" stop-color="#1B409C"/>
</linearGradient>
<linearGradient id="paint1_linear_725_9309" x1="32.2661" y1="32.5836" x2="35.1867" y2="66.9447" gradientUnits="userSpaceOnUse">
<stop stop-color="#FF7852"/>
<stop offset="1" stop-color="#1B409C"/>
</linearGradient>
</defs>
</svg>
