<svg width="223" height="264" viewBox="0 0 223 264" fill="none" xmlns="http://www.w3.org/2000/svg">
<path fill-rule="evenodd" clip-rule="evenodd" d="M142.545 74C147.72 73.9999 153.823 75.1066 157.602 78.3307V78.3176L169.662 86.3085C171.465 87.5035 171.442 90.1716 169.618 91.3347L159.8 97.5952C158.921 102.302 157.807 105.888 156.549 108.685C157.542 119.714 154.762 133.677 145.72 145.028C140.979 150.98 135.224 155.138 129.152 157.948L129.194 185.479C129.198 187.959 127.203 189.971 124.738 189.975C122.273 189.979 120.271 187.972 120.267 185.493L120.229 161.119C117.723 161.769 115.219 162.234 112.763 162.544C112.782 162.713 112.794 162.885 112.794 163.059L112.828 185.504C112.832 187.983 110.837 189.996 108.372 190C105.907 190.004 103.905 187.997 103.901 185.518L103.867 163.072C103.867 163.059 103.867 163.046 103.867 163.033C99.3418 162.967 95.2337 162.424 91.9053 161.639L62.2454 187.014C61.1623 187.941 59.5787 187.967 58.4656 187.077L52.1242 182.007C50.8379 180.979 50.6237 179.096 51.6462 177.802L81.4255 140.127C83.852 132.885 89.1902 123.85 97.9082 112.906C104.16 105.057 110.18 99.2101 115.75 95.1329C120.149 83.9993 128.894 73.9992 142.545 74ZM147.751 82.2278C144.875 82.2279 142.544 84.5727 142.544 87.465C142.544 90.3574 144.875 92.7026 147.751 92.7027C150.627 92.7027 152.958 90.3575 152.958 87.465C152.958 84.5726 150.627 82.2278 147.751 82.2278Z" fill="url(#paint0_linear_81_120)"/>
<defs>
<linearGradient id="paint0_linear_81_120" x1="137.903" y1="206.204" x2="171.661" y2="88.8266" gradientUnits="userSpaceOnUse">
<stop stop-color="#1B409C"/>
<stop offset="0.738848" stop-color="#FF7852"/>
</linearGradient>
</defs>
</svg>
