<svg width="26" height="26" viewBox="0 0 26 26" fill="none" xmlns="http://www.w3.org/2000/svg">
<path d="M13 0C5.8203 0 0 5.8203 0 13C0 20.1797 5.8203 26 13 26C20.1797 26 26 20.1797 26 13C26 5.8203 20.1797 0 13 0ZM13.5859 6.58594C14.367 5.80489 15.633 5.80489 16.4141 6.58594C17.1951 7.36699 17.1951 8.63301 16.4141 9.41406L12.8281 13L16.4141 16.5859C17.1951 17.367 17.1951 18.633 16.4141 19.4141C15.633 20.195 14.3669 20.1951 13.5859 19.4141L8.58594 14.4141C7.80494 13.6331 7.80504 12.367 8.58594 11.5859L13.5859 6.58594Z" fill="#CDDBFF"/>
</svg>
