<svg width="26" height="26" viewBox="0 0 26 26" fill="none" xmlns="http://www.w3.org/2000/svg">
<path d="M13 0C20.1797 0 26 5.8203 26 13C26 20.1797 20.1797 26 13 26C5.8203 26 0 20.1797 0 13C0 5.8203 5.8203 0 13 0ZM12.4141 6.58594C11.633 5.80489 10.367 5.80489 9.58594 6.58594C8.80489 7.36699 8.80489 8.63301 9.58594 9.41406L13.1719 13L9.58594 16.5859C8.80489 17.367 8.80489 18.633 9.58594 19.4141C10.367 20.195 11.6331 20.1951 12.4141 19.4141L17.4141 14.4141C18.1951 13.6331 18.195 12.367 17.4141 11.5859L12.4141 6.58594Z" fill="#CDDBFF"/>
</svg>
