<svg width="25" height="26" viewBox="0 0 25 26" fill="none" xmlns="http://www.w3.org/2000/svg">
<path d="M12.9401 15.1586C14.2064 15.1586 15.233 14.0981 15.233 12.79C15.233 11.4819 14.2064 10.4214 12.9401 10.4214C11.6737 10.4214 10.6471 11.4819 10.6471 12.79C10.6471 14.0981 11.6737 15.1586 12.9401 15.1586Z" fill="#21272A"/>
<path fill-rule="evenodd" clip-rule="evenodd" d="M2 12.79C3.46091 7.98525 7.80644 4.5 12.94 4.5C18.0736 4.5 22.4191 7.98521 23.88 12.79C22.4191 17.5948 18.0736 21.08 12.94 21.08C7.80645 21.08 3.46094 17.5948 2 12.79ZM17.526 12.79C17.526 15.4063 15.4728 17.5271 12.9401 17.5271C10.4073 17.5271 8.35411 15.4063 8.35411 12.79C8.35411 10.1737 10.4073 8.05286 12.9401 8.05286C15.4728 8.05286 17.526 10.1737 17.526 12.79Z" fill="#21272A"/>
</svg>
