<svg width="24" height="24" viewBox="0 0 24 24" fill="none" xmlns="http://www.w3.org/2000/svg">
<path d="M10.9893 1.99902C15.9536 1.99927 19.9775 6.02382 19.9775 10.9883C19.9774 13.0653 19.271 14.976 18.0879 16.498L21.6709 20.082C22.1096 20.5209 22.1096 21.2321 21.6709 21.6709C21.2321 22.1094 20.5207 22.1095 20.082 21.6709L16.499 18.0869C14.977 19.27 13.0663 19.9765 10.9893 19.9766C6.02482 19.9766 2.00026 15.9527 2 10.9883C2 6.02367 6.02466 1.99902 10.9893 1.99902ZM10.9893 4.24609C7.26581 4.24609 4.24707 7.26482 4.24707 10.9883C4.24733 14.7115 7.26597 17.7295 10.9893 17.7295C14.7123 17.7292 17.7302 14.7114 17.7305 10.9883C17.7305 7.26498 14.7125 4.24634 10.9893 4.24609Z" fill="#060D1D"/>
</svg>
