<svg width="140" height="77" viewBox="0 0 140 77" fill="none" xmlns="http://www.w3.org/2000/svg">
<ellipse cx="98" cy="63" rx="23" ry="6" fill="#ECF1FF"/>
<path d="M126.799 14.7109C127.461 14.3525 128.292 14.5941 128.654 15.251L130.421 17.251C130.734 17.8195 130.598 18.5283 130.096 18.9424L117.319 29.0586C116.55 29.6679 116.139 30.6139 116.126 31.5938C116.111 32.7887 116.003 34.1129 115.781 35.5068L114.864 39.46C114.532 40.538 114.127 41.6259 113.639 42.7002L112.982 43.8584L112.062 60.1973C111.999 61.3017 111.048 62.1468 109.937 62.085C108.825 62.0231 107.975 61.078 108.037 59.9736L108.608 49.8359C107.39 50.9825 105.995 52.0182 104.399 52.8896C102.34 54.0143 100.194 54.7591 98.0654 55.1973L93.9766 61.5342C93.3756 62.4652 92.1284 62.7358 91.1914 62.1387C90.2544 61.5415 89.9821 60.3022 90.583 59.3711L92.958 55.6904C90.9007 55.6712 88.9449 55.3954 87.1963 54.9297C85.8389 55.2773 82.6117 55.6808 80.4248 55.71L75.2412 59.001C73.9455 59.7162 72.6847 59.5729 72.6846 57.5703V51.5488C72.3621 49.4156 72.2782 48.2771 72.6836 45.9551C73.7526 39.8297 78.9389 36.6808 84.2939 35.5703C86.5651 33.3877 89.668 31.1397 93.6895 28.9434C99.2976 25.8805 103.782 24.1862 107.231 23.6592L126.799 14.7109ZM82.0928 48.0137C80.8059 47.6028 79.4272 48.3062 79.0137 49.585C78.6003 50.8637 79.3079 52.2336 80.5947 52.6445C81.8816 53.0554 83.2602 52.3518 83.6738 51.0732C84.0873 49.7946 83.3794 48.4248 82.0928 48.0137Z" fill="url(#paint0_linear_1905_12325)"/>
<ellipse cx="33" cy="63" rx="20" ry="6" fill="#ECF1FF"/>
<path fill-rule="evenodd" clip-rule="evenodd" d="M44.6716 9.08887C47.0788 9.08881 49.9175 9.60358 51.6751 11.1032V11.097L57.2842 14.8137C58.1229 15.3696 58.1122 16.6105 57.264 17.1515L52.6973 20.0634C52.2887 22.2526 51.7704 23.9207 51.1851 25.2216C51.647 30.351 50.3541 36.8457 46.1488 42.1249C43.9433 44.8936 41.2667 46.8275 38.4423 48.1343L38.4621 60.9398C38.4639 62.0929 37.5359 63.0289 36.3894 63.0307C35.2428 63.0325 34.3117 62.0993 34.3099 60.9461L34.2925 49.6094C33.1267 49.9116 31.9621 50.1278 30.8197 50.2719C30.8288 50.3505 30.834 50.4305 30.8341 50.5115L30.8502 60.9514C30.8519 62.1044 29.9237 63.0405 28.7772 63.0424C27.6307 63.0441 26.6998 62.1108 26.698 60.9578L26.6819 50.5179C26.6819 50.5118 26.6823 50.5057 26.6823 50.4997C24.5773 50.4687 22.6666 50.2165 21.1185 49.851L7.3232 61.6536C6.81945 62.0845 6.08285 62.0968 5.56514 61.6829L2.61567 59.3248C2.01738 58.8464 1.91774 57.9707 2.39332 57.3689L16.2441 39.8456C17.3728 36.477 19.8556 32.2748 23.9105 27.1845C26.8184 23.5341 29.6185 20.8145 32.2089 18.9181C34.2552 13.7397 38.3225 9.0885 44.6716 9.08887ZM47.0932 12.9157C45.7556 12.9158 44.6712 14.0064 44.6712 15.3517C44.6712 16.697 45.7556 17.7877 47.0932 17.7878C48.4309 17.7878 49.5153 16.697 49.5153 15.3517C49.5152 14.0064 48.4309 12.9157 47.0932 12.9157Z" fill="url(#paint1_linear_1905_12325)"/>
<defs>
<linearGradient id="paint0_linear_1905_12325" x1="75.156" y1="31.7992" x2="126.318" y2="40.7314" gradientUnits="userSpaceOnUse">
<stop stop-color="#FF7852"/>
<stop offset="1" stop-color="#1B409C"/>
</linearGradient>
<linearGradient id="paint1_linear_1905_12325" x1="42.5126" y1="70.579" x2="58.2142" y2="15.9849" gradientUnits="userSpaceOnUse">
<stop stop-color="#1B409C"/>
<stop offset="0.738848" stop-color="#FF7852"/>
</linearGradient>
</defs>
</svg>
