<svg width="264" height="371" viewBox="0 0 264 371" fill="none" xmlns="http://www.w3.org/2000/svg">
<rect x="0.5" y="43.5" width="263" height="327" rx="5.5" fill="white" stroke="#C1CAE0"/>
<mask id="mask0_816_8966" style="mask-type:alpha" maskUnits="userSpaceOnUse" x="15" y="59" width="234" height="233">
<rect x="15.9395" y="59" width="233" height="233" rx="6" fill="#959EB7"/>
</mask>
<g mask="url(#mask0_816_8966)">
<rect x="15.9395" y="59" width="233" height="233" rx="6" fill="url(#paint0_linear_816_8966)" fill-opacity="0.4"/>
</g>
<path d="M21.0176 331.208V337.923H16.2129V331.208H21.0176ZM17.1035 331.947V337.173H20.1035V331.947H17.1035ZM23.8418 330.154V334.314H25.5879V335.111H23.8418V340.572H22.9277V330.154H23.8418ZM34.8602 330.154V335.556H33.9579V330.154H34.8602ZM34.872 336.083V338.58H29.0243V339.705H35.247V340.455H28.122V337.865H33.9579V336.822H28.0985V336.083H34.872ZM29.9618 331.255C29.9501 332.732 31.0751 334.033 32.622 334.537L32.1649 335.251C30.9462 334.835 29.9735 333.962 29.5048 332.837C29.036 334.05 28.0575 335.005 26.8212 335.451L26.3407 334.724C27.911 334.173 29.0243 332.791 29.0243 331.255V330.458H29.9618V331.255ZM45.6912 330.154V340.572H44.8005V330.154H45.6912ZM43.5935 330.376V340.044H42.7146V334.982H41.3787C41.2791 337.009 40.4177 338.275 39.1287 338.275C37.7693 338.275 36.8904 336.869 36.8904 334.654C36.8904 332.439 37.7693 331.033 39.1287 331.033C40.3943 331.033 41.2498 332.257 41.367 334.22H42.7146V330.376H43.5935ZM39.1287 331.9C38.2849 331.9 37.7459 332.955 37.7576 334.654C37.7459 336.341 38.2849 337.408 39.1287 337.396C39.9724 337.408 40.5115 336.341 40.5115 334.654C40.5115 332.955 39.9724 331.9 39.1287 331.9ZM50.9205 332.955C50.9205 334.841 52.1276 336.74 53.6393 337.431L53.0885 338.181C51.9049 337.572 50.9264 336.324 50.4635 334.841C50.0006 336.4 49.0221 337.736 47.8385 338.369L47.2409 337.63C48.7643 336.88 49.983 334.876 49.983 332.955V331.056H50.9205V332.955ZM55.8893 330.154V340.595H54.9752V334.466H52.5026V333.716H54.9752V330.154H55.8893ZM64.4262 332.333C64.4262 333.576 65.4809 334.724 67.016 335.181L66.5824 335.884C65.3812 335.527 64.4437 334.753 63.9926 333.751C63.5355 334.853 62.5687 335.691 61.3324 336.095L60.8754 335.369C62.4223 334.9 63.5238 333.705 63.5238 332.333V332.134H61.1684V331.373H63.5238V330.107H64.4496V331.373H66.7816V332.134H64.4262V332.333ZM69.0199 330.154V332.732H70.5902V333.505H69.0199V336.212H68.1059V330.154H69.0199ZM69.2074 336.775V337.525H66.2543C66.4066 338.615 67.9359 339.552 69.6059 339.822L69.266 340.537C67.7367 340.285 66.3539 339.529 65.7621 338.486C65.1645 339.523 63.7934 340.261 62.2816 340.525L61.9301 339.822C63.6117 339.552 65.1234 338.632 65.2816 337.525H62.3402V336.775H69.2074ZM74.1555 330.962C75.6907 330.974 76.7805 332.38 76.7923 334.595C76.7805 336.81 75.6907 338.216 74.1555 338.216C72.6087 338.216 71.5305 336.81 71.5305 334.595C71.5305 332.38 72.6087 330.974 74.1555 330.962ZM74.1555 331.783C73.1243 331.794 72.3977 332.896 72.3977 334.595C72.3977 336.294 73.1243 337.396 74.1555 337.396C75.1985 337.396 75.9016 336.294 75.9016 334.595C75.9016 332.896 75.1985 331.794 74.1555 331.783ZM79.429 330.154V334.314H81.1751V335.111H79.429V340.572H78.5149V330.154H79.429ZM91.3966 338.474V339.236H81.8576V338.474H86.1466V336.224H82.9826V330.892H83.9084V332.779H89.3224V330.892H90.2248V336.224H87.049V338.474H91.3966ZM83.9084 335.474H89.3224V333.529H83.9084V335.474ZM100.774 333.318V334.056H93.6377V330.541H94.5518V333.318H100.774ZM101.876 335.474V336.224H92.337V335.474H101.876ZM100.833 339.552V340.314H93.5791V337.291H94.4932V339.552H100.833ZM115.499 336.13V336.904H111.151V340.572H110.249V336.904H105.96V336.13H115.499ZM110.706 330.576C112.897 330.576 114.374 331.455 114.374 332.873C114.374 334.255 112.897 335.134 110.706 335.134C108.514 335.134 107.038 334.255 107.038 332.873C107.038 331.455 108.514 330.576 110.706 330.576ZM110.706 331.326C109.077 331.326 107.975 331.935 107.987 332.873C107.975 333.798 109.077 334.396 110.706 334.396C112.323 334.396 113.436 333.798 113.436 332.873C113.436 331.935 112.323 331.326 110.706 331.326ZM125.064 330.154V340.595H124.15V330.154H125.064ZM121.9 331.126V334.83H118.009V337.291C119.738 337.291 121.279 337.214 123.142 336.916L123.236 337.689C121.314 337.994 119.732 338.064 117.939 338.064H117.072V334.08H120.974V331.888H117.049V331.126H121.9ZM136.458 335.31V336.048H126.954V335.31H131.254V334.091H128.161V330.646H135.274V331.384H129.063V333.341H135.344V334.091H132.145V335.31H136.458ZM131.7 336.81C133.938 336.81 135.274 337.49 135.286 338.685C135.274 339.892 133.938 340.56 131.7 340.572C129.45 340.56 128.102 339.892 128.102 338.685C128.102 337.49 129.45 336.81 131.7 336.81ZM131.7 337.537C130.024 337.537 129.028 337.97 129.04 338.685C129.028 339.412 130.024 339.833 131.7 339.833C133.352 339.833 134.36 339.412 134.36 338.685C134.36 337.97 133.352 337.537 131.7 337.537ZM138.874 331.291V337.126C139.999 337.115 141.066 337.05 142.32 336.787L142.449 337.583C141.054 337.876 139.894 337.935 138.617 337.935H137.96V331.291H138.874ZM146.363 330.154V340.572H145.484V330.154H146.363ZM144.136 330.412V340.044H143.257V334.431H140.878V333.669H143.257V330.412H144.136ZM159.13 330.154V334.396H160.818V335.169H159.13V340.572H158.216V330.154H159.13ZM156.435 331.279C156.435 334.232 155.052 336.916 151.654 338.591L151.138 337.865C153.833 336.523 155.298 334.519 155.509 332.052H151.618V331.279H156.435ZM170.477 330.154V340.572H169.598V330.154H170.477ZM168.285 330.435V340.044H167.406V335.181H165.203C164.565 336.394 163.563 337.466 162.109 338.322L161.57 337.654C163.838 336.312 164.975 334.431 165.145 332.251H162.016V331.49H166.059C166.053 332.515 165.889 333.505 165.543 334.431H167.406V330.435H168.285ZM183.771 330.154V340.595H182.846V330.154H183.771ZM178.228 330.962C179.775 330.974 180.889 332.38 180.889 334.595C180.889 336.81 179.775 338.216 178.228 338.216C176.67 338.216 175.568 336.81 175.568 334.595C175.568 332.38 176.67 330.974 178.228 330.962ZM178.228 331.783C177.185 331.794 176.459 332.896 176.459 334.595C176.459 336.294 177.185 337.396 178.228 337.396C179.271 337.396 179.998 336.294 179.998 334.595C179.998 332.896 179.271 331.794 178.228 331.783ZM194.52 330.154V338.076H193.641V330.154H194.52ZM192.528 330.365V337.759H191.649V333.951H190.208V336.095H186.153V330.998H187.02V332.755H189.341V330.998H190.208V333.189H191.649V330.365H192.528ZM187.02 335.333H189.341V333.482H187.02V335.333ZM194.837 339.576V340.349H187.688V337.009H188.602V339.576H194.837ZM204.601 335.791V336.541H197.394V331.056H204.484V331.83H198.332V333.376H204.261V334.115H198.332V335.791H204.601ZM205.703 338.451V339.212H196.164V338.451H205.703Z" fill="#727C94"/>
<path d="M21.1816 347.927C21.1699 350.939 20.1504 353.693 16.4004 355.533L15.8848 354.83C17.8477 353.88 19.0254 352.673 19.6582 351.267L16.084 351.607L15.9316 350.798L19.9395 350.529C20.1211 349.943 20.2266 349.328 20.2676 348.689H16.459V347.927H21.1816ZM23.8418 346.837V351.08H25.5293V351.853H23.8418V357.255H22.9277V346.837H23.8418ZM35.2352 346.837V357.255H34.3446V346.837H35.2352ZM33.1962 347.095V356.705H32.3173V351.63H30.8641V350.798H32.3173V347.095H33.1962ZM31.1688 348.173V348.935H30.2899V353.751C30.6825 353.728 31.0575 353.693 31.4032 353.646L31.4618 354.326C29.8212 354.63 27.6298 354.677 26.2704 354.677L26.1532 353.892L27.2548 353.88V348.935H26.3759V348.173H31.1688ZM28.0985 353.869C28.5321 353.857 28.9891 353.839 29.4345 353.81V348.935H28.0985V353.869ZM48.483 346.837V357.279H47.5573V346.837H48.483ZM45.5299 347.833V348.607H41.4987V353.892C43.526 353.892 44.862 353.828 46.4205 353.552L46.5143 354.326C44.8971 354.619 43.526 354.677 41.4166 354.689H40.5729V347.833H45.5299ZM59.021 346.837V357.279H58.0952V351.396H55.8101V350.634H58.0952V346.837H59.021ZM53.9937 349.931C53.9937 351.666 55.2359 353.552 56.7593 354.244L56.2085 354.982C55.0191 354.402 54.0171 353.142 53.5484 351.689C53.0679 353.23 52.0425 354.566 50.853 355.193L50.2905 354.478C51.8023 353.74 53.0562 351.783 53.0679 349.931V348.677H50.689V347.916H56.3843V348.677H53.9937V349.931ZM69.3129 352.474V353.224H62.1059V347.74H69.1957V348.513H63.0434V350.06H68.973V350.798H63.0434V352.474H69.3129ZM70.4145 355.134V355.896H60.8754V355.134H70.4145ZM83.088 346.837V357.279H82.1623V346.837H83.088ZM77.5451 347.646C79.092 347.658 80.2052 349.064 80.2052 351.279C80.2052 353.494 79.092 354.9 77.5451 354.9C75.9865 354.9 74.8849 353.494 74.8849 351.279C74.8849 349.064 75.9865 347.658 77.5451 347.646ZM77.5451 348.466C76.5021 348.478 75.7755 349.58 75.7755 351.279C75.7755 352.978 76.5021 354.08 77.5451 354.08C78.588 354.08 79.3146 352.978 79.3146 351.279C79.3146 349.58 78.588 348.478 77.5451 348.466ZM93.837 346.837V354.759H92.958V346.837H93.837ZM91.8448 347.048V354.443H90.9659V350.634H89.5245V352.779H85.4698V347.681H86.337V349.439H88.6573V347.681H89.5245V349.873H90.9659V347.048H91.8448ZM86.337 352.017H88.6573V350.166H86.337V352.017ZM94.1534 356.259V357.033H87.0049V353.693H87.919V356.259H94.1534ZM103.918 352.474V353.224H96.7109V347.74H103.801V348.513H97.6484V350.06H103.578V350.798H97.6484V352.474H103.918ZM105.019 355.134V355.896H95.4804V355.134H105.019ZM115.499 353.025V353.775H111.151V357.255H110.249V353.775H105.96V353.025H115.499ZM108.093 347.271V348.712H113.343V347.271H114.268V351.759H107.179V347.271H108.093ZM108.093 351.009H113.343V349.462H108.093V351.009ZM125.099 346.837V357.279H124.185V351.537H121.982V350.775H124.185V346.837H125.099ZM121.806 347.798V348.56H117.869V350.728H121.349V351.478H117.869V353.998C119.785 353.998 121.004 353.933 122.439 353.681L122.545 354.443C121.033 354.689 119.756 354.759 117.74 354.759H116.943V347.798H121.806ZM138.675 347.166V347.892H137.07V349.908H138.64V350.623H131.011V349.908H132.581V347.892H130.976V347.166H138.675ZM139.578 351.501V352.24H130.085V351.501H139.578ZM138.359 353.177V355.439H132.171V356.435H138.675V357.138H131.257V354.771H137.456V353.869H131.234V353.177H138.359ZM133.496 349.908H136.156V347.892H133.496V349.908ZM149.178 346.837V357.279H148.264V346.837H149.178ZM146.014 347.81V351.513H142.123V353.974C143.852 353.974 145.393 353.898 147.256 353.599L147.35 354.373C145.428 354.677 143.846 354.748 142.053 354.748H141.186V350.763H145.088V348.572H141.162V347.81H146.014ZM156.306 347.892V354.607H151.501V347.892H156.306ZM152.392 348.63V353.857H155.392V348.63H152.392ZM159.13 346.837V350.998H160.876V351.794H159.13V357.255H158.216V346.837H159.13ZM170.43 346.849V353.927H169.551V346.849H170.43ZM168.379 347.037V352.99H167.5V350.658H165.555C164.922 351.865 163.815 352.867 162.109 353.599L161.664 352.919C163.205 352.269 164.201 351.408 164.758 350.376L161.793 350.693L161.641 349.919L165.051 349.708C165.18 349.316 165.268 348.906 165.309 348.478H162.145V347.716H166.211C166.211 348.49 166.106 349.216 165.883 349.896H167.5V347.037H168.379ZM167.395 353.658C167.395 355.052 169.176 356.212 171.004 356.494L170.629 357.208C169.065 356.933 167.576 356.119 166.938 354.935C166.299 356.119 164.811 356.933 163.246 357.208L162.883 356.494C164.699 356.212 166.481 355.052 166.481 353.658V353.306H167.395V353.658ZM173.761 355.521L172.847 358.708H171.979L172.624 355.521H173.761ZM187.864 352.087V352.837H183.563V354.033H186.692V357.22H185.766V354.783H179.426V354.033H182.661V352.837H178.372V352.087H187.864ZM183.563 346.791V347.869H186.903V348.607H183.622C183.686 349.791 185.333 350.605 187.301 350.798L186.997 351.501C185.28 351.314 183.745 350.687 183.118 349.626C182.485 350.687 180.95 351.314 179.239 351.501L178.934 350.798C180.891 350.605 182.538 349.791 182.614 348.607H179.356V347.869H182.661V346.791H183.563ZM197.769 346.837V357.255H196.89V346.837H197.769ZM195.66 347.095V356.716H194.793V351.349H193.035V350.599H194.793V347.095H195.66ZM191.921 349.814C191.921 351.619 192.73 353.412 194.171 354.244L193.609 354.923C192.584 354.308 191.857 353.183 191.5 351.853C191.119 353.289 190.363 354.513 189.32 355.169L188.734 354.478C190.187 353.611 191.031 351.712 191.031 349.814V348.83H189.027V348.068H193.832V348.83H191.921V349.814ZM207.604 346.837V351.138H209.186V351.912H207.604V357.255H206.678V346.837H207.604ZM202.518 347.974C202.506 350.458 201.944 352.896 200.057 354.9L199.319 354.373C200.895 352.761 201.528 350.822 201.651 348.748H199.647V347.974H202.518ZM205.377 347.974C205.366 350.447 205.002 353.318 203.057 355.591L202.307 355.076C203.936 353.236 204.428 350.921 204.51 348.748H202.846V347.974H205.377ZM213.572 350.037C213.572 351.806 214.861 353.599 216.396 354.267L215.88 354.994C214.661 354.437 213.607 353.236 213.126 351.794C212.634 353.324 211.585 354.654 210.396 355.251L209.845 354.525C211.333 353.81 212.634 351.841 212.646 350.037V348.677H210.185V347.916H216.056V348.677H213.572V350.037ZM218.435 346.837V357.255H217.509V346.837H218.435ZM222.024 347.822L221.942 353.916H220.957L220.875 347.822H222.024ZM221.449 356.376C221.039 356.376 220.688 356.037 220.699 355.615C220.688 355.205 221.039 354.865 221.449 354.865C221.86 354.865 222.199 355.205 222.199 355.615C222.199 356.037 221.86 356.376 221.449 356.376Z" fill="#727C94"/>
<path d="M32.6777 310.773V312.746H25.7832V314.289H30.7051V319.777H28.2246V316.262H18.2637V314.289H23.3223V312.746H16.4668V310.773H32.6777ZM25.7832 302.043V303.645H31.1152V305.578H25.9785C26.2617 306.857 28.0684 308.01 31.9551 308.273L31.1934 310.129C27.9316 309.904 25.666 308.967 24.5527 307.531C23.4297 308.967 21.1641 309.904 17.9121 310.129L17.1504 308.273C21.0176 308.01 22.8242 306.857 23.127 305.578H18.0293V303.645H23.3223V302.043H25.7832ZM49.523 302.023V319.797H47.1598V302.023H49.523ZM45.8902 302.316V318.977H43.5465V310.129H41.2027V308.117H43.5465V302.316H45.8902ZM39.777 306.789C39.777 309.738 40.6949 312.727 43.2926 314.211L41.8277 316.047C40.2457 315.109 39.2008 313.518 38.6051 311.613C37.9898 313.684 36.9156 315.441 35.2848 316.438L33.7809 314.602C36.398 313 37.3746 309.797 37.3746 306.789V305.832H34.4645V303.84H42.4723V305.832H39.777V306.789ZM55.5871 316.555L53.9074 322.121H51.8371L52.8137 316.555H55.5871ZM77.227 302.023V319.836H74.7074V302.023H77.227ZM67.5785 303.273C70.2543 303.273 72.2465 305.734 72.2465 309.602C72.2465 313.508 70.2543 315.949 67.5785 315.949C64.8441 315.949 62.852 313.508 62.8715 309.602C62.852 305.734 64.8441 303.273 67.5785 303.273ZM67.5785 305.52C66.1918 305.52 65.2738 306.965 65.2738 309.602C65.2738 312.258 66.1918 313.684 67.5785 313.684C68.9262 313.684 69.8441 312.258 69.8441 309.602C69.8441 306.965 68.9262 305.52 67.5785 305.52ZM95.3027 302.023V315.461H92.9395V302.023H95.3027ZM91.6895 302.297V314.895H89.3457V308.938H87.7441V312.375H80.6543V303.391H83.0176V306.105H85.4395V303.391H87.7441V306.945H89.3457V302.297H91.6895ZM83.0176 310.363H85.4395V308H83.0176V310.363ZM95.752 317.492V319.484H83.252V313.684H85.752V317.492H95.752ZM112.207 311.203V313.176H99.6285V303.332H112.07V305.344H102.168V307.219H111.66V309.172H102.168V311.203H112.207ZM113.984 315.695V317.727H97.7145V315.695H113.984ZM129.354 303.586V305.617H123.768V313.508C126.356 313.479 128.221 313.361 130.311 312.98L130.565 314.992C128.124 315.461 125.975 315.559 122.694 315.539H121.249V303.586H129.354ZM135.429 302.023V319.836H132.948V310.207H128.475V308.176H132.948V302.023H135.429ZM153.24 303.742V305.715H149.646C149.686 307.463 150.975 309.26 153.807 309.973L152.713 311.887C150.662 311.369 149.236 310.256 148.436 308.84C147.645 310.402 146.219 311.643 144.139 312.219L142.967 310.246C145.799 309.514 147.127 307.639 147.166 305.715H143.592V303.742H147.166V301.945H149.686V303.742H153.24ZM157.205 302.023V306.008H159.607V308.059H157.205V312.16H154.705V302.023H157.205ZM157.42 312.922V314.875H152.908C153.357 316.184 155.105 317.453 158.201 317.863L157.322 319.758C154.461 319.377 152.449 318.234 151.424 316.711C150.408 318.225 148.406 319.338 145.584 319.719L144.686 317.824C147.811 317.443 149.539 316.213 149.998 314.875H145.447V312.922H157.42ZM165.574 303.273C168.289 303.273 170.242 305.734 170.261 309.602C170.242 313.508 168.289 315.949 165.574 315.949C162.859 315.949 160.867 313.508 160.886 309.602C160.867 305.734 162.859 303.273 165.574 303.273ZM165.574 305.52C164.207 305.52 163.289 306.965 163.289 309.602C163.289 312.258 164.207 313.684 165.574 313.684C166.961 313.684 167.859 312.258 167.879 309.602C167.859 306.965 166.961 305.52 165.574 305.52ZM174.812 302.023V308.723H177.429V310.793H174.812V319.797H172.312V302.023H174.812ZM194.743 315.695V317.727H178.474V315.695H185.329V312.414H180.193V303.156H182.693V305.91H190.446V303.156H192.927V312.414H187.81V315.695H194.743ZM182.693 310.422H190.446V307.902H182.693V310.422ZM211.1 302.023V319.797H208.581V302.023H211.1ZM205.768 303.879C205.768 309.27 203.874 313.742 197.526 316.75L196.218 314.758C200.807 312.59 202.829 309.777 203.229 305.832H197.175V303.879H205.768Z" fill="black"/>
<path fill-rule="evenodd" clip-rule="evenodd" d="M132.249 153.8C149.37 153.8 163.25 167.68 163.25 184.801L163.24 185.599C162.824 202.036 149.613 215.291 133.196 215.783C133.177 215.784 133.159 215.785 133.141 215.785C132.848 215.794 132.554 215.798 132.259 215.798C132.257 215.798 132.254 215.8 132.251 215.8C131.943 215.8 131.634 215.792 131.327 215.783C131.24 215.781 131.153 215.776 131.066 215.773C130.863 215.765 130.66 215.757 130.458 215.746C130.334 215.739 130.21 215.731 130.085 215.723C129.888 215.709 129.691 215.692 129.495 215.675C129.391 215.666 129.287 215.658 129.183 215.648C128.897 215.62 128.612 215.588 128.328 215.552C128.248 215.542 128.168 215.53 128.087 215.519C127.882 215.491 127.676 215.463 127.472 215.432C127.355 215.414 127.238 215.393 127.122 215.373C126.931 215.342 126.742 215.309 126.552 215.274C126.452 215.255 126.352 215.237 126.253 215.217C125.674 215.104 125.1 214.976 124.533 214.831C124.475 214.816 124.417 214.8 124.359 214.785C124.127 214.724 123.895 214.66 123.664 214.594C123.586 214.571 123.509 214.548 123.432 214.525C123.214 214.46 122.998 214.392 122.782 214.323C122.716 214.302 122.649 214.282 122.583 214.261C122.028 214.079 121.48 213.882 120.939 213.67C120.867 213.642 120.796 213.612 120.724 213.583C120.5 213.493 120.278 213.403 120.058 213.308C120.014 213.29 119.971 213.271 119.928 213.252C119.675 213.142 119.423 213.029 119.174 212.913C119.151 212.903 119.129 212.892 119.107 212.882C118.286 212.497 117.486 212.078 116.707 211.626C116.658 211.597 116.609 211.569 116.56 211.54C116.055 211.244 115.559 210.933 115.073 210.609C115.012 210.568 114.952 210.525 114.891 210.484C114.708 210.36 114.526 210.237 114.346 210.11C114.293 210.072 114.242 210.033 114.189 209.995C112.462 208.755 110.869 207.342 109.433 205.782C109.404 205.75 109.375 205.719 109.347 205.688C108.338 204.582 107.408 203.402 106.566 202.159C106.547 202.131 106.527 202.105 106.509 202.077C103.328 197.347 101.415 191.691 101.26 185.599L101.25 184.801C101.25 167.68 115.129 153.8 132.249 153.8ZM132.249 158.059C117.526 158.06 105.539 170.004 105.539 184.801C105.539 189.718 106.869 194.316 109.177 198.269C109.809 197.421 110.478 196.547 111.194 195.651C114.546 191.456 117.775 188.332 120.761 186.153C123.12 180.202 127.808 174.857 135.127 174.857C137.901 174.857 141.174 175.447 143.2 177.17V177.164L149.666 181.436C150.633 182.074 150.621 183.499 149.643 184.121L144.38 187.467C143.909 189.983 143.31 191.9 142.635 193.394C143.111 198.669 141.964 205.198 138.245 210.86C150.093 208.138 158.96 197.526 158.961 184.801C158.961 170.004 146.972 158.059 132.249 158.059ZM137.918 179.254C136.377 179.254 135.127 180.508 135.127 182.053C135.127 183.599 136.377 184.853 137.918 184.853C139.46 184.853 140.71 183.599 140.71 182.053C140.71 180.508 139.46 179.254 137.918 179.254Z" fill="url(#paint1_linear_816_8966)"/>
<path fill-rule="evenodd" clip-rule="evenodd" d="M50.8991 1C52.8755 0.999954 55.2063 1.41975 56.6494 2.64269V2.63769L61.2547 5.66874C61.9434 6.12203 61.9346 7.13405 61.2381 7.57524L57.4887 9.94989C57.1531 11.7353 56.7276 13.0956 56.2471 14.1566C56.6263 18.3396 55.5648 23.6362 52.1119 27.9415C50.3011 30.1994 48.1035 31.7765 45.7845 32.8422L45.8008 43.2853C45.8022 44.2257 45.0403 44.989 44.0989 44.9905C43.1575 44.992 42.393 44.2309 42.3915 43.2905L42.3772 34.0452C41.4201 34.2916 40.4638 34.468 39.5259 34.5855C39.5333 34.6496 39.5376 34.7148 39.5377 34.7809L39.5509 43.2948C39.5523 44.2351 38.7902 44.9985 37.8489 45C36.9076 45.0014 36.1432 44.2403 36.1417 43.3L36.1285 34.7861C36.1285 34.7812 36.1288 34.7762 36.1288 34.7712C34.4005 34.7459 32.8317 34.5403 31.5606 34.2422L20.2339 43.8674C19.8203 44.2189 19.2155 44.2289 18.7905 43.8914L16.3688 41.9682C15.8775 41.5781 15.7957 40.864 16.1862 40.3732L27.5585 26.0827C28.4852 23.3355 30.5238 19.9085 33.8531 15.7573C36.2406 12.7803 38.5396 10.5625 40.6665 9.01593C42.3466 4.79283 45.6861 0.999702 50.8991 1ZM52.8874 4.12089C51.7891 4.12092 50.8988 5.01032 50.8987 6.10741C50.8987 7.20453 51.7891 8.09408 52.8874 8.09411C53.9857 8.09411 54.876 7.20455 54.876 6.10741C54.876 5.0103 53.9857 4.12089 52.8874 4.12089Z" fill="url(#paint2_linear_816_8966)"/>
<defs>
<linearGradient id="paint0_linear_816_8966" x1="270.876" y1="5.12558" x2="241.114" y2="314.978" gradientUnits="userSpaceOnUse">
<stop stop-color="#4E7AEA"/>
<stop offset="0.875" stop-color="#FFDBAC"/>
<stop offset="1" stop-color="#FFBE93"/>
</linearGradient>
<linearGradient id="paint1_linear_816_8966" x1="123.159" y1="221.789" x2="164.483" y2="162.419" gradientUnits="userSpaceOnUse">
<stop stop-color="#1B409C"/>
<stop offset="0.614814" stop-color="#FF7852"/>
</linearGradient>
<linearGradient id="paint2_linear_816_8966" x1="49.1265" y1="51.1463" x2="61.858" y2="6.57808" gradientUnits="userSpaceOnUse">
<stop stop-color="#1B409C"/>
<stop offset="0.738848" stop-color="#FF7852"/>
</linearGradient>
</defs>
</svg>
